<svg width="512" height="347" viewBox="0 0 512 347" fill="none" xmlns="http://www.w3.org/2000/svg">
<path d="M472 0H182.068C176.545 0 172.068 4.477 172.068 10C172.068 15.523 176.545 20 182.068 20H472C472.518 20 473.027 20.039 473.535 20.078L445.592 48.021H315.15C309.627 48.021 305.15 52.498 305.15 58.021C305.15 63.544 309.627 68.021 315.15 68.021H425.592L286.203 207.41C269.549 224.064 242.451 224.065 225.797 207.41L38.465 20.078C38.973 20.039 39.482 20 40 20H93C98.523 20 103 15.523 103 10C103 4.477 98.523 0 93 0H40C17.944 0 0 17.944 0 40V306.042C0 328.098 17.944 346.042 40 346.042H472C494.056 346.042 512 328.098 512 306.042V40C512 17.944 494.056 0 472 0ZM20 306.042V40C20 37.043 20.662 34.244 21.819 31.716L161.001 170.898L20.699 311.2C20.258 309.551 20 307.828 20 306.042ZM472 326.042H40C38.214 326.042 36.491 325.784 34.842 325.343L175.144 185.041L211.656 221.553C223.881 233.778 239.94 239.891 256 239.891C272.06 239.891 288.119 233.778 300.345 221.553L336.856 185.041L477.158 325.343C475.509 325.784 473.786 326.042 472 326.042ZM492 306.042C492 307.828 491.742 309.551 491.301 311.2L350.999 170.899L490.181 31.716C491.338 34.244 492 37.043 492 40V306.042V306.042Z" fill="#FFFCFC"/>
<path d="M137.489 0H137.364C131.841 0 127.364 4.477 127.364 10C127.364 15.523 131.841 20 137.364 20H137.489C143.012 20 147.489 15.523 147.489 10C147.489 4.477 143.012 0 137.489 0Z" fill="white"/>
<path d="M273.3 48.021H273.15C267.627 48.021 263.15 52.498 263.15 58.021C263.15 63.544 267.627 68.021 273.15 68.021H273.3C278.823 68.021 283.3 63.544 283.3 58.021C283.3 52.498 278.823 48.021 273.3 48.021Z" fill="white"/>
</svg>
