<svg width="350" height="352" viewBox="0 0 350 352" fill="none" xmlns="http://www.w3.org/2000/svg">
<path d="M112.104 279H76.5078V120.504H112.104V279ZM74.3105 79.3418C74.3105 73.873 76.0195 69.332 79.4375 65.7188C82.9531 62.1055 87.9336 60.2988 94.3789 60.2988C100.824 60.2988 105.805 62.1055 109.32 65.7188C112.836 69.332 114.594 73.873 114.594 79.3418C114.594 84.7129 112.836 89.2051 109.32 92.8184C105.805 96.334 100.824 98.0918 94.3789 98.0918C87.9336 98.0918 82.9531 96.334 79.4375 92.8184C76.0195 89.2051 74.3105 84.7129 74.3105 79.3418ZM184.027 120.504L185.053 138.814C196.771 124.654 212.152 117.574 231.195 117.574C264.203 117.574 281 136.471 281.586 174.264V279H245.99V176.314C245.99 166.256 243.793 158.834 239.398 154.049C235.102 149.166 228.021 146.725 218.158 146.725C203.803 146.725 193.109 153.219 186.078 166.207V279H150.482V120.504H184.027Z" fill="white"/>
<circle cx="285" cy="56" r="10" fill="white"/>
<rect x="161" y="46" width="100" height="20" rx="10" fill="white"/>
<circle cx="136" cy="10" r="10" fill="white"/>
<path fill-rule="evenodd" clip-rule="evenodd" d="M213 10C213 15.5228 217.477 20 223 20H290C312.091 20 330 37.9086 330 60V292C330 314.091 312.091 332 290 332H60C37.9086 332 20 314.091 20 292V60C20 37.9086 37.9086 20 60 20H89C94.5228 20 99 15.5228 99 10V10C99 4.47715 94.5228 0 89 0H60C26.8629 0 0 26.8629 0 60V292C0 325.137 26.8629 352 60 352H290C323.137 352 350 325.137 350 292V60C350 26.8629 323.137 0 290 0H223C217.477 0 213 4.47715 213 10V10Z" fill="white"/>
</svg>
