<svg width="24" height="24" viewBox="0 0 24 24" fill="none" xmlns="http://www.w3.org/2000/svg">
<g clip-path="url(#clip0)">
<rect width="24" height="24" fill="#1070CA"/>
<path d="M7.64335 19H5.21638V8.19345H7.64335V19ZM5.06656 5.38694C5.06656 5.01407 5.18308 4.70446 5.41613 4.4581C5.65583 4.21174 5.99541 4.08856 6.43486 4.08856C6.87431 4.08856 7.21389 4.21174 7.45359 4.4581C7.69329 4.70446 7.81314 5.01407 7.81314 5.38694C7.81314 5.75315 7.69329 6.05944 7.45359 6.3058C7.21389 6.5455 6.87431 6.66535 6.43486 6.66535C5.99541 6.66535 5.65583 6.5455 5.41613 6.3058C5.18308 6.05944 5.06656 5.75315 5.06656 5.38694ZM12.5473 8.19345L12.6172 9.4419C13.4162 8.47643 14.4649 7.9937 15.7632 7.9937C18.0138 7.9937 19.159 9.28209 19.199 11.8589V19H16.772V11.9987C16.772 11.3129 16.6222 10.8069 16.3226 10.4806C16.0296 10.1477 15.5469 9.98122 14.8744 9.98122C13.8956 9.98122 13.1665 10.424 12.6871 11.3096V19H10.2601V8.19345H12.5473Z" fill="white"/>
</g>
<defs>
<clipPath id="clip0">
<rect width="23.8636" height="24" fill="white"/>
</clipPath>
</defs>
</svg>
