<svg width="274" height="40" viewBox="0 0 274 40" fill="none" xmlns="http://www.w3.org/2000/svg">
<g clip-path="url(#clip0)">
<path fill-rule="evenodd" clip-rule="evenodd" d="M4.33333 40H34.6667C37.0599 40 39 38.0102 39 35.5556V4.44444C39 1.98985 37.0599 0 34.6667 0H4.33333C1.9401 0 0 1.98985 0 4.44444V35.5556C0 38.0102 1.9401 40 4.33333 40Z" fill="#C33E96"/>
<path d="M16 4.00012L25.797 4C28.9857 4 31.3806 4.69551 32.9817 6.08654C34.5962 7.47756 35.4035 9.53571 35.4035 12.261C35.4035 13.7088 35.0133 14.9934 34.233 16.1147C33.4526 17.2218 32.3897 18.0806 31.0443 18.6909C32.6319 19.1593 33.8831 20.0536 34.798 21.3736C35.7264 22.6795 36.1906 24.2408 36.1906 26.0577C36.1906 28.8397 35.3362 31.0256 33.6275 32.6154C32.5518 33.6162 31.1962 34.302 29.5606 34.6727C27.6574 35.1041 25.8592 33.8647 25.0426 32.0924L25 32H27C28.8029 32 29.6854 31.1676 30.7214 30.1882C31.7708 29.1946 32.2955 27.832 32.2955 26.1003C32.2955 22.3672 30.5385 20 26.6906 20H24.1759C22.5042 20 20.943 19.1645 20.0157 17.7735L19.5 17H26.1906C27.8858 17 28.9656 16.7747 29.9746 15.8805C30.9972 14.9863 31.5084 13.7727 31.5084 12.2397C31.5084 10.5364 31.0375 9.30151 30.0957 8.53503C29.1539 7.75435 27.924 7 26 7L20 7.00012C18.2084 7.00012 16.6179 5.8537 16.0513 4.15407L16 4.00012Z" fill="black"/>
<path d="M14 11L15.9406 18.0463C16.4212 19.7911 18.008 21 19.8178 21L17.5609 13.6333C17.0814 12.0685 15.6366 11 14 11Z" fill="white"/>
<path d="M8.4918 26.9093H18.4918L18.7176 27.711C19.9318 32.022 23.8643 35 28.3431 35H268V32H28.3052C25.168 32 22.4139 29.9127 21.5658 26.8924L20.626 23.5453H9.44262L14.8689 4C13.1692 4 11.674 5.12287 11.2001 6.75509L3 35C4.91825 35 6.60102 33.7207 7.11411 31.8724L8.4918 26.9093Z" fill="white"/>
<path d="M168.162 17.4C169.515 17.75 170.542 18.4033 171.242 19.36C171.942 20.3167 172.292 21.495 172.292 22.895C172.292 25.1583 171.533 26.9083 170.017 28.145C168.5 29.3817 166.388 30 163.682 30H154.582C154.022 30 153.578 29.8367 153.252 29.51C152.948 29.16 152.82 28.705 152.867 28.145L154.547 7.07499C154.57 6.51499 154.745 6.08332 155.072 5.77999C155.422 5.47666 155.865 5.32499 156.402 5.32499H164.627C167.24 5.32499 169.223 5.86166 170.577 6.93499C171.953 8.00832 172.642 9.50166 172.642 11.415C172.642 12.8383 172.257 14.0633 171.487 15.09C170.74 16.1167 169.632 16.8867 168.162 17.4ZM158.012 8.22999L157.382 16H163.787C167.31 16 169.072 14.6 169.072 11.8C169.072 9.41999 167.45 8.22999 164.207 8.22999H158.012ZM163.472 27.095C167.065 27.095 168.862 25.6833 168.862 22.86C168.862 20.2233 167.205 18.905 163.892 18.905H157.172L156.507 27.095H163.472Z" fill="black"/>
<path d="M183.937 30.245C182.281 30.245 180.834 29.9067 179.597 29.23C178.361 28.5533 177.404 27.585 176.727 26.325C176.051 25.065 175.712 23.6067 175.712 21.95C175.712 20.0367 176.062 18.3683 176.762 16.945C177.486 15.5217 178.489 14.425 179.772 13.655C181.079 12.885 182.584 12.5 184.287 12.5C185.967 12.5 187.426 12.85 188.662 13.55C189.899 14.2267 190.856 15.195 191.532 16.455C192.209 17.6917 192.547 19.15 192.547 20.83C192.547 22.7433 192.186 24.4117 191.462 25.835C190.762 27.235 189.759 28.32 188.452 29.09C187.169 29.86 185.664 30.245 183.937 30.245ZM183.972 27.445C185.582 27.445 186.819 26.8383 187.682 25.625C188.546 24.4117 188.977 22.7783 188.977 20.725C188.977 18.975 188.569 17.645 187.752 16.735C186.959 15.8017 185.816 15.335 184.322 15.335C182.689 15.335 181.441 15.9417 180.577 17.155C179.714 18.3683 179.282 20.0017 179.282 22.055C179.282 23.8283 179.679 25.17 180.472 26.08C181.289 26.99 182.456 27.445 183.972 27.445Z" fill="black"/>
<path d="M211.673 5.11499C212.21 5.11499 212.63 5.26666 212.933 5.56999C213.236 5.87332 213.376 6.26999 213.353 6.75999L211.638 28.495C211.615 29.0317 211.428 29.4517 211.078 29.755C210.728 30.035 210.296 30.175 209.783 30.175C209.27 30.175 208.861 30.035 208.558 29.755C208.255 29.4517 208.126 29.0317 208.173 28.495L208.243 27.41C207.706 28.2967 206.948 28.9967 205.968 29.51C204.988 30 203.915 30.245 202.748 30.245C201.325 30.245 200.053 29.9183 198.933 29.265C197.836 28.5883 196.985 27.6317 196.378 26.395C195.771 25.1583 195.468 23.7117 195.468 22.055C195.468 20.165 195.806 18.4967 196.483 17.05C197.16 15.6033 198.105 14.4833 199.318 13.69C200.555 12.8967 201.966 12.5 203.553 12.5C204.813 12.5 205.921 12.7683 206.878 13.305C207.835 13.8183 208.581 14.565 209.118 15.545L209.818 6.68999C209.841 6.19999 210.028 5.81499 210.378 5.53499C210.728 5.25499 211.16 5.11499 211.673 5.11499ZM203.763 27.445C205.326 27.445 206.551 26.8617 207.438 25.695C208.325 24.505 208.768 22.895 208.768 20.865C208.768 19.0683 208.36 17.7033 207.543 16.77C206.726 15.8133 205.56 15.335 204.043 15.335C202.48 15.335 201.255 15.9183 200.368 17.085C199.481 18.2517 199.038 19.85 199.038 21.88C199.038 23.6533 199.446 25.03 200.263 26.01C201.103 26.9667 202.27 27.445 203.763 27.445Z" fill="black"/>
<path d="M230.007 12.92C230.45 12.92 230.788 13.06 231.022 13.34C231.278 13.5967 231.407 13.9233 231.407 14.32C231.407 14.8333 231.22 15.2883 230.847 15.685L220.277 27.27H229.307C229.773 27.27 230.135 27.3867 230.392 27.62C230.648 27.8533 230.777 28.1683 230.777 28.565C230.777 29.0317 230.637 29.3933 230.357 29.65C230.077 29.8833 229.668 30 229.132 30H216.952C216.508 30 216.158 29.8717 215.902 29.615C215.668 29.3583 215.552 29.0317 215.552 28.635C215.552 28.1683 215.738 27.7367 216.112 27.34L226.717 15.65H218.282C217.815 15.65 217.453 15.5333 217.197 15.3C216.94 15.0667 216.812 14.7517 216.812 14.355C216.812 13.3983 217.348 12.92 218.422 12.92H230.007Z" fill="black"/>
<path d="M242.256 12.5C246.573 12.5 248.731 14.5067 248.731 18.52C248.731 18.9633 248.719 19.3017 248.696 19.535L247.996 28.565C247.973 29.0783 247.798 29.475 247.471 29.755C247.168 30.035 246.759 30.175 246.246 30.175C245.733 30.175 245.324 30.0233 245.021 29.72C244.718 29.3933 244.589 28.985 244.636 28.495L244.706 27.305C244.216 28.2617 243.539 28.9967 242.676 29.51C241.813 30 240.809 30.245 239.666 30.245C237.963 30.245 236.551 29.79 235.431 28.88C234.334 27.9467 233.786 26.7567 233.786 25.31C233.786 24.0033 234.124 22.9767 234.801 22.23C235.478 21.46 236.551 20.9 238.021 20.55C239.514 20.2 241.509 20.025 244.006 20.025H245.266L245.336 19.15C245.429 17.82 245.196 16.8517 244.636 16.245C244.076 15.615 243.166 15.3 241.906 15.3C240.366 15.3 238.663 15.8133 236.796 16.84C236.586 16.9567 236.353 17.015 236.096 17.015C235.746 17.015 235.454 16.8867 235.221 16.63C234.988 16.3733 234.871 16.07 234.871 15.72C234.871 15.16 235.163 14.6933 235.746 14.32C236.586 13.76 237.578 13.3167 238.721 12.99C239.888 12.6633 241.066 12.5 242.256 12.5ZM240.506 27.62C241.719 27.62 242.746 27.1883 243.586 26.325C244.426 25.4617 244.904 24.3533 245.021 23L245.091 22.02H244.111C242.384 22.02 241.031 22.1133 240.051 22.3C239.071 22.4867 238.371 22.79 237.951 23.21C237.531 23.63 237.321 24.2133 237.321 24.96C237.321 25.7767 237.601 26.43 238.161 26.92C238.744 27.3867 239.526 27.62 240.506 27.62Z" fill="black"/>
<path d="M267.111 27.515C267.391 27.795 267.531 28.1333 267.531 28.53C267.531 28.95 267.345 29.335 266.971 29.685C266.621 30.035 266.225 30.21 265.781 30.21C265.361 30.21 264.988 30.035 264.661 29.685L256.926 22.02L256.401 28.53C256.355 29.0667 256.156 29.475 255.806 29.755C255.456 30.035 255.036 30.175 254.546 30.175C254.033 30.175 253.613 30.0233 253.286 29.72C252.96 29.4167 252.82 28.9967 252.866 28.46L254.581 6.79499C254.605 6.25832 254.803 5.84999 255.176 5.56999C255.55 5.28999 255.981 5.14999 256.471 5.14999C256.985 5.14999 257.393 5.30166 257.696 5.60499C258 5.88499 258.14 6.30499 258.116 6.86499L257.031 20.55L265.291 13.165C265.618 12.8383 265.991 12.675 266.411 12.675C266.831 12.675 267.193 12.8383 267.496 13.165C267.823 13.4683 267.986 13.8183 267.986 14.215C267.986 14.635 267.811 15.0083 267.461 15.335L260.811 21.18L267.111 27.515Z" fill="black"/>
<path d="M70.01 27.935C70.08 28.145 70.115 28.355 70.115 28.565C70.115 29.0317 69.9283 29.4283 69.555 29.755C69.205 30.0583 68.8083 30.21 68.365 30.21C68.0383 30.21 67.735 30.1167 67.455 29.93C67.1983 29.7433 67 29.4633 66.86 29.09L65.04 23.91H52.44L49.78 29.16C49.4533 29.8133 48.94 30.14 48.24 30.14C47.7966 30.14 47.4116 30 47.085 29.72C46.7583 29.4167 46.595 29.0433 46.595 28.6C46.595 28.3433 46.665 28.0633 46.805 27.76L58.04 6.33999C58.25 5.94332 58.5416 5.63999 58.915 5.42999C59.2883 5.21999 59.6733 5.11499 60.07 5.11499C60.5133 5.11499 60.91 5.23166 61.26 5.46499C61.61 5.69832 61.8666 6.02499 62.03 6.44499L70.01 27.935ZM53.91 21.04H63.99L59.86 9.34999L53.91 21.04Z" fill="white"/>
<path d="M89.3781 5.11499C89.9148 5.11499 90.3348 5.26666 90.6381 5.56999C90.9414 5.87332 91.0814 6.26999 91.0581 6.75999L89.3431 28.495C89.3198 29.0317 89.1331 29.4517 88.7831 29.755C88.4331 30.035 88.0014 30.175 87.4881 30.175C86.9748 30.175 86.5664 30.035 86.2631 29.755C85.9598 29.4517 85.8314 29.0317 85.8781 28.495L85.9481 27.41C85.4114 28.2967 84.6531 28.9967 83.6731 29.51C82.6931 30 81.6198 30.245 80.4531 30.245C79.0298 30.245 77.7581 29.9183 76.6381 29.265C75.5414 28.5883 74.6898 27.6317 74.0831 26.395C73.4764 25.1583 73.1731 23.7117 73.1731 22.055C73.1731 20.165 73.5114 18.4967 74.1881 17.05C74.8648 15.6033 75.8098 14.4833 77.0231 13.69C78.2598 12.8967 79.6714 12.5 81.2581 12.5C82.5181 12.5 83.6264 12.7683 84.5831 13.305C85.5398 13.8183 86.2864 14.565 86.8231 15.545L87.5231 6.68999C87.5464 6.19999 87.7331 5.81499 88.0831 5.53499C88.4331 5.25499 88.8648 5.11499 89.3781 5.11499ZM81.4681 27.445C83.0314 27.445 84.2564 26.8617 85.1431 25.695C86.0298 24.505 86.4731 22.895 86.4731 20.865C86.4731 19.0683 86.0648 17.7033 85.2481 16.77C84.4314 15.8133 83.2648 15.335 81.7481 15.335C80.1848 15.335 78.9598 15.9183 78.0731 17.085C77.1864 18.2517 76.7431 19.85 76.7431 21.88C76.7431 23.6533 77.1514 25.03 77.9681 26.01C78.8081 26.9667 79.9748 27.445 81.4681 27.445Z" fill="white"/>
<path d="M102.427 12.5C106.743 12.5 108.902 14.5067 108.902 18.52C108.902 18.9633 108.89 19.3017 108.867 19.535L108.167 28.565C108.143 29.0783 107.968 29.475 107.642 29.755C107.338 30.035 106.93 30.175 106.417 30.175C105.903 30.175 105.495 30.0233 105.192 29.72C104.888 29.3933 104.76 28.985 104.807 28.495L104.877 27.305C104.387 28.2617 103.71 28.9967 102.847 29.51C101.983 30 100.98 30.245 99.8368 30.245C98.1335 30.245 96.7218 29.79 95.6018 28.88C94.5051 27.9467 93.9568 26.7567 93.9568 25.31C93.9568 24.0033 94.2951 22.9767 94.9718 22.23C95.6485 21.46 96.7218 20.9 98.1918 20.55C99.6851 20.2 101.68 20.025 104.177 20.025H105.437L105.507 19.15C105.6 17.82 105.367 16.8517 104.807 16.245C104.247 15.615 103.337 15.3 102.077 15.3C100.537 15.3 98.8335 15.8133 96.9668 16.84C96.7568 16.9567 96.5235 17.015 96.2668 17.015C95.9168 17.015 95.6251 16.8867 95.3918 16.63C95.1585 16.3733 95.0418 16.07 95.0418 15.72C95.0418 15.16 95.3335 14.6933 95.9168 14.32C96.7568 13.76 97.7485 13.3167 98.8918 12.99C100.058 12.6633 101.237 12.5 102.427 12.5ZM100.677 27.62C101.89 27.62 102.917 27.1883 103.757 26.325C104.597 25.4617 105.075 24.3533 105.192 23L105.262 22.02H104.282C102.555 22.02 101.202 22.1133 100.222 22.3C99.2418 22.4867 98.5418 22.79 98.1218 23.21C97.7018 23.63 97.4918 24.2133 97.4918 24.96C97.4918 25.7767 97.7718 26.43 98.3318 26.92C98.9151 27.3867 99.6968 27.62 100.677 27.62Z" fill="white"/>
<path d="M133.652 12.5C135.426 12.5 136.767 13.0017 137.677 14.005C138.611 14.985 139.077 16.4317 139.077 18.345C139.077 18.835 139.066 19.2083 139.042 19.465L138.342 28.495C138.296 29.0783 138.097 29.51 137.747 29.79C137.397 30.0467 136.966 30.175 136.452 30.175C135.939 30.175 135.519 30.035 135.192 29.755C134.889 29.475 134.761 29.055 134.807 28.495L135.507 19.605C135.531 19.4183 135.542 19.15 135.542 18.8C135.542 16.5133 134.539 15.37 132.532 15.37C131.226 15.37 130.187 15.8017 129.417 16.665C128.671 17.505 128.227 18.7533 128.087 20.41L127.457 28.495C127.411 29.0783 127.212 29.51 126.862 29.79C126.512 30.0467 126.081 30.175 125.567 30.175C125.054 30.175 124.634 30.035 124.307 29.755C124.004 29.475 123.876 29.055 123.922 28.495L124.622 19.64C124.646 19.4533 124.657 19.1733 124.657 18.8C124.657 17.6333 124.401 16.77 123.887 16.21C123.397 15.65 122.639 15.37 121.612 15.37C120.306 15.37 119.279 15.8017 118.532 16.665C117.786 17.505 117.342 18.7533 117.202 20.41L116.537 28.495C116.491 29.0783 116.292 29.51 115.942 29.79C115.592 30.0467 115.161 30.175 114.647 30.175C114.134 30.175 113.714 30.035 113.387 29.755C113.084 29.475 112.956 29.055 113.002 28.495L114.157 14.18C114.181 13.6667 114.379 13.27 114.752 12.99C115.149 12.71 115.592 12.57 116.082 12.57C116.572 12.57 116.957 12.71 117.237 12.99C117.517 13.2467 117.646 13.6317 117.622 14.145L117.552 15.265C118.719 13.4217 120.481 12.5 122.837 12.5C124.121 12.5 125.182 12.7683 126.022 13.305C126.862 13.8417 127.469 14.6233 127.842 15.65C128.449 14.6467 129.254 13.8767 130.257 13.34C131.261 12.78 132.392 12.5 133.652 12.5Z" fill="white"/>
</g>
<defs>
<clipPath id="clip0">
<rect width="274" height="40" fill="white"/>
</clipPath>
</defs>
</svg>
