<svg width="268" height="40" viewBox="0 0 268 40" fill="none" xmlns="http://www.w3.org/2000/svg">
<path d="M34.6667 38.5H4.33333C2.8041 38.5 1.5 37.2178 1.5 35.5556V4.44444C1.5 2.78225 2.8041 1.5 4.33333 1.5H34.6667C36.1959 1.5 37.5 2.78225 37.5 4.44444V35.5556C37.5 37.2178 36.1959 38.5 34.6667 38.5Z" stroke="white" stroke-width="3"/>
<path d="M16.2831 6.0001L24.7862 6C27.5537 6 29.6323 6.60365 31.0219 7.81096C32.4232 9.01826 33.1238 10.8046 33.1238 13.1699C33.1238 14.4265 32.7852 15.5414 32.1079 16.5146C31.4306 17.4756 30.5081 18.2209 29.3404 18.7506C30.7183 19.1572 31.8043 19.9333 32.5984 21.079C33.4041 22.2124 33.807 23.5675 33.807 25.1444C33.807 27.559 33.0655 29.4562 31.5824 30.836C30.6488 31.7046 29.4722 32.2998 28.0526 32.6216C26.4009 32.996 24.8401 31.9203 24.1314 30.3821L24.0944 30.3019H25.8303C27.3951 30.3019 28.1609 29.5794 29.0601 28.7294C29.9709 27.867 30.4264 26.6843 30.4264 25.1814C30.4264 21.9414 28.9014 19.8868 25.5617 19.8868H23.3792C21.9282 19.8868 20.5732 19.1616 19.7684 17.9544L19.3208 17.283H25.1277C26.5991 17.283 27.5362 17.0875 28.412 16.3114C29.2995 15.5352 29.7432 14.4819 29.7432 13.1514C29.7432 11.6731 29.3345 10.6013 28.5171 9.93606C27.6997 9.25849 26.6322 8.60377 24.9624 8.60377L19.7548 8.60387C18.1998 8.60387 16.8193 7.60887 16.3276 6.13372L16.2831 6.0001Z" fill="black"/>
<path d="M14.5471 12.0754L16.2314 18.1911C16.6485 19.7055 18.0258 20.7547 19.5965 20.7547L17.6377 14.3609C17.2216 13.0028 15.9676 12.0754 14.5471 12.0754Z" fill="white"/>
<path d="M9.76647 25.8836H18.4457L18.6417 26.5793C19.6955 30.321 23.1087 32.9057 26.9959 32.9057H235V30.3019H26.963C24.2401 30.3019 21.8498 28.4903 21.1137 25.8688L20.298 22.9639H10.5917L15.3013 6C13.8261 6 12.5284 6.97456 12.1171 8.39121L5 32.9057C6.66489 32.9057 8.12541 31.7953 8.57073 30.1911L9.76647 25.8836Z" fill="white"/>
<path d="M148.348 17.6302C149.522 17.934 150.413 18.501 151.021 19.3314C151.629 20.1617 151.932 21.1844 151.932 22.3995C151.932 24.3639 151.274 25.8827 149.958 26.9561C148.641 28.0294 146.809 28.5661 144.46 28.5661H136.561C136.075 28.5661 135.691 28.4243 135.407 28.1408C135.144 27.837 135.032 27.4421 135.073 26.9561L136.531 8.66891C136.551 8.18287 136.703 7.80821 136.987 7.54494C137.29 7.28167 137.675 7.15004 138.141 7.15004H145.28C147.548 7.15004 149.269 7.61582 150.444 8.5474C151.639 9.47897 152.236 10.7751 152.236 12.4357C152.236 13.671 151.902 14.7343 151.234 15.6253C150.586 16.5164 149.624 17.1847 148.348 17.6302ZM139.538 9.67136L138.992 16.4151H144.551C147.609 16.4151 149.138 15.2 149.138 12.7698C149.138 10.7042 147.73 9.67136 144.915 9.67136H139.538ZM144.277 26.0448C147.396 26.0448 148.955 24.8195 148.955 22.3691C148.955 20.0807 147.518 18.9365 144.642 18.9365H138.809L138.232 26.0448H144.277Z" fill="black"/>
<path d="M162.04 28.7787C160.602 28.7787 159.346 28.4851 158.273 27.8978C157.2 27.3105 156.37 26.47 155.782 25.3765C155.195 24.2829 154.901 23.0171 154.901 21.5793C154.901 19.9187 155.205 18.4707 155.813 17.2353C156.44 16 157.311 15.0482 158.425 14.3798C159.559 13.7115 160.865 13.3774 162.344 13.3774C163.802 13.3774 165.068 13.6812 166.141 14.2887C167.214 14.876 168.045 15.7165 168.632 16.81C169.219 17.8834 169.513 19.1491 169.513 20.6072C169.513 22.2678 169.199 23.7158 168.571 24.9512C167.964 26.1663 167.093 27.108 165.959 27.7763C164.845 28.4446 163.539 28.7787 162.04 28.7787ZM162.07 26.3485C163.468 26.3485 164.541 25.822 165.29 24.7689C166.04 23.7158 166.414 22.2982 166.414 20.5161C166.414 18.9972 166.06 17.8429 165.351 17.0531C164.663 16.243 163.67 15.838 162.374 15.838C160.956 15.838 159.873 16.3645 159.124 17.4176C158.374 18.4707 158 19.8883 158 21.6704C158 23.2095 158.344 24.374 159.033 25.1638C159.741 25.9536 160.754 26.3485 162.07 26.3485Z" fill="black"/>
<path d="M186.113 6.96777C186.578 6.96777 186.943 7.09941 187.206 7.36268C187.469 7.62595 187.591 7.97023 187.571 8.39551L186.082 27.2598C186.062 27.7256 185.9 28.0902 185.596 28.3534C185.292 28.5965 184.918 28.718 184.472 28.718C184.027 28.718 183.672 28.5965 183.409 28.3534C183.146 28.0902 183.034 27.7256 183.075 27.2598L183.136 26.3182C182.67 27.0877 182.012 27.6953 181.161 28.1408C180.311 28.5661 179.379 28.7787 178.366 28.7787C177.131 28.7787 176.027 28.4952 175.055 27.9282C174.103 27.3409 173.364 26.5105 172.838 25.4372C172.311 24.3639 172.048 23.1083 172.048 21.6704C172.048 20.03 172.342 18.582 172.929 17.3265C173.516 16.0709 174.336 15.0988 175.389 14.4102C176.463 13.7217 177.688 13.3774 179.065 13.3774C180.159 13.3774 181.121 13.6103 181.951 14.0761C182.781 14.5216 183.429 15.1697 183.895 16.0202L184.503 8.33475C184.523 7.90947 184.685 7.57532 184.989 7.3323C185.292 7.08928 185.667 6.96777 186.113 6.96777ZM179.247 26.3485C180.604 26.3485 181.667 25.8422 182.437 24.8297C183.206 23.7968 183.591 22.3995 183.591 20.6376C183.591 19.0782 183.237 17.8935 182.528 17.0834C181.819 16.2531 180.807 15.838 179.49 15.838C178.133 15.838 177.07 16.3443 176.301 17.3568C175.531 18.3694 175.146 19.7566 175.146 21.5185C175.146 23.0576 175.501 24.2525 176.21 25.1031C176.939 25.9334 177.951 26.3485 179.247 26.3485Z" fill="black"/>
<path d="M202.025 13.7419C202.41 13.7419 202.703 13.8634 202.906 14.1065C203.129 14.3292 203.24 14.6127 203.24 14.957C203.24 15.4026 203.078 15.7975 202.754 16.1417L193.58 26.1966H201.417C201.822 26.1966 202.136 26.2979 202.359 26.5004C202.582 26.7029 202.693 26.9763 202.693 27.3206C202.693 27.7256 202.572 28.0395 202.329 28.2623C202.086 28.4648 201.731 28.5661 201.265 28.5661H190.694C190.309 28.5661 190.006 28.4547 189.783 28.2319C189.58 28.0092 189.479 27.7256 189.479 27.3814C189.479 26.9763 189.641 26.6017 189.965 26.2574L199.169 16.1114H191.848C191.443 16.1114 191.13 16.0101 190.907 15.8076C190.684 15.6051 190.573 15.3317 190.573 14.9874C190.573 14.1571 191.038 13.7419 191.97 13.7419H202.025Z" fill="black"/>
<path d="M212.656 13.3774C216.403 13.3774 218.276 15.119 218.276 18.6023C218.276 18.9871 218.266 19.2807 218.246 19.4832L217.638 27.3206C217.618 27.7661 217.466 28.1104 217.182 28.3534C216.919 28.5965 216.565 28.718 216.119 28.718C215.674 28.718 215.319 28.5863 215.056 28.3231C214.793 28.0395 214.681 27.6851 214.722 27.2598L214.783 26.227C214.357 27.0573 213.77 27.6953 213.021 28.1408C212.271 28.5661 211.401 28.7787 210.408 28.7787C208.93 28.7787 207.705 28.3838 206.733 27.594C205.781 26.7839 205.305 25.7511 205.305 24.4955C205.305 23.3614 205.599 22.4704 206.186 21.8223C206.773 21.154 207.705 20.668 208.981 20.3642C210.277 20.0604 212.008 19.9085 214.175 19.9085H215.269L215.329 19.1491C215.41 17.9948 215.208 17.1543 214.722 16.6278C214.236 16.081 213.446 15.8076 212.352 15.8076C211.016 15.8076 209.537 16.2531 207.917 17.1442C207.735 17.2454 207.533 17.2961 207.31 17.2961C207.006 17.2961 206.753 17.1847 206.55 16.9619C206.348 16.7392 206.247 16.4759 206.247 16.1721C206.247 15.6861 206.5 15.281 207.006 14.957C207.735 14.471 208.596 14.0862 209.588 13.8027C210.601 13.5192 211.623 13.3774 212.656 13.3774ZM211.137 26.5004C212.19 26.5004 213.081 26.1258 213.811 25.3765C214.54 24.6271 214.955 23.6652 215.056 22.4906L215.117 21.64H214.266C212.768 21.64 211.593 21.721 210.742 21.8831C209.892 22.0451 209.284 22.3083 208.92 22.6729C208.555 23.0374 208.373 23.5437 208.373 24.1917C208.373 24.9005 208.616 25.4676 209.102 25.8929C209.608 26.2979 210.287 26.5004 211.137 26.5004Z" fill="black"/>
<path d="M234.229 26.4093C234.472 26.6523 234.593 26.9459 234.593 27.2902C234.593 27.6548 234.431 27.9889 234.107 28.2927C233.804 28.5965 233.459 28.7483 233.075 28.7483C232.71 28.7483 232.386 28.5965 232.102 28.2927L225.389 21.64L224.933 27.2902C224.893 27.756 224.721 28.1104 224.417 28.3534C224.113 28.5965 223.749 28.718 223.323 28.718C222.878 28.718 222.513 28.5863 222.23 28.3231C221.946 28.0598 221.825 27.6953 221.865 27.2295L223.354 8.42589C223.374 7.9601 223.546 7.6057 223.87 7.36268C224.194 7.11966 224.569 6.99815 224.994 6.99815C225.44 6.99815 225.794 7.12979 226.057 7.39306C226.321 7.63607 226.442 8.0006 226.422 8.48664L225.48 20.3642L232.649 13.9546C232.933 13.671 233.257 13.5293 233.621 13.5293C233.986 13.5293 234.3 13.671 234.563 13.9546C234.847 14.2178 234.988 14.5216 234.988 14.8659C234.988 15.2304 234.836 15.5544 234.533 15.838L228.761 20.911L234.229 26.4093Z" fill="black"/>
<path d="M63.1596 26.7738C63.2204 26.9561 63.2507 27.1383 63.2507 27.3206C63.2507 27.7256 63.0887 28.0699 62.7647 28.3534C62.4609 28.6167 62.1167 28.7483 61.7319 28.7483C61.4484 28.7483 61.1851 28.6673 60.9421 28.5053C60.7193 28.3433 60.5472 28.1003 60.4256 27.7763L58.846 23.2804H47.9102L45.6015 27.837C45.318 28.4041 44.8724 28.6876 44.2649 28.6876C43.8801 28.6876 43.546 28.5661 43.2624 28.3231C42.9789 28.0598 42.8372 27.7358 42.8372 27.351C42.8372 27.1282 42.8979 26.8852 43.0194 26.6219L52.7706 8.03098C52.9528 7.6867 53.206 7.42343 53.53 7.24117C53.854 7.05891 54.1882 6.96777 54.5324 6.96777C54.9172 6.96777 55.2615 7.06903 55.5653 7.27155C55.869 7.47406 56.0918 7.75758 56.2336 8.12211L63.1596 26.7738ZM49.186 20.7895H57.9347L54.3502 10.6434L49.186 20.7895Z" fill="white"/>
<path d="M79.9697 6.96777C80.4355 6.96777 80.8 7.09941 81.0633 7.36268C81.3265 7.62595 81.448 7.97023 81.4278 8.39551L79.9393 27.2598C79.9191 27.7256 79.757 28.0902 79.4533 28.3534C79.1495 28.5965 78.7748 28.718 78.3293 28.718C77.8838 28.718 77.5294 28.5965 77.2661 28.3534C77.0028 28.0902 76.8914 27.7256 76.9319 27.2598L76.9927 26.3182C76.5269 27.0877 75.8687 27.6953 75.0182 28.1408C74.1676 28.5661 73.236 28.7787 72.2235 28.7787C70.9881 28.7787 69.8844 28.4952 68.9123 27.9282C67.9605 27.3409 67.2213 26.5105 66.6948 25.4372C66.1682 24.3639 65.905 23.1083 65.905 21.6704C65.905 20.03 66.1986 18.582 66.7859 17.3265C67.3732 16.0709 68.1934 15.0988 69.2465 14.4102C70.3198 13.7217 71.545 13.3774 72.9221 13.3774C74.0157 13.3774 74.9777 13.6103 75.808 14.0761C76.6383 14.5216 77.2863 15.1697 77.7521 16.0202L78.3597 8.33475C78.3799 7.90947 78.5419 7.57532 78.8457 7.3323C79.1495 7.08928 79.5241 6.96777 79.9697 6.96777ZM73.1044 26.3485C74.4613 26.3485 75.5245 25.8422 76.294 24.8297C77.0636 23.7968 77.4484 22.3995 77.4484 20.6376C77.4484 19.0782 77.094 17.8935 76.3852 17.0834C75.6763 16.2531 74.6638 15.838 73.3474 15.838C71.9906 15.838 70.9274 16.3443 70.1578 17.3568C69.3882 18.3694 69.0035 19.7566 69.0035 21.5185C69.0035 23.0576 69.3579 24.2525 70.0667 25.1031C70.7957 25.9334 71.8083 26.3485 73.1044 26.3485Z" fill="white"/>
<path d="M91.295 13.3774C95.0415 13.3774 96.9148 15.119 96.9148 18.6023C96.9148 18.9871 96.9047 19.2807 96.8844 19.4832L96.2769 27.3206C96.2566 27.7661 96.1047 28.1104 95.8212 28.3534C95.5579 28.5965 95.2035 28.718 94.758 28.718C94.3125 28.718 93.9581 28.5863 93.6948 28.3231C93.4315 28.0395 93.3201 27.6851 93.3606 27.2598L93.4214 26.227C92.9961 27.0573 92.4088 27.6953 91.6595 28.1408C90.9102 28.5661 90.0394 28.7787 89.0471 28.7787C87.5687 28.7787 86.3435 28.3838 85.3714 27.594C84.4196 26.7839 83.9437 25.7511 83.9437 24.4955C83.9437 23.3614 84.2373 22.4704 84.8246 21.8223C85.4119 21.154 86.3435 20.668 87.6193 20.3642C88.9154 20.0604 90.6469 19.9085 92.8138 19.9085H93.9074L93.9682 19.1491C94.0492 17.9948 93.8467 17.1543 93.3606 16.6278C92.8746 16.081 92.0848 15.8076 90.9912 15.8076C89.6546 15.8076 88.1762 16.2531 86.5561 17.1442C86.3738 17.2454 86.1713 17.2961 85.9486 17.2961C85.6448 17.2961 85.3916 17.1847 85.1891 16.9619C84.9866 16.7392 84.8854 16.4759 84.8854 16.1721C84.8854 15.6861 85.1385 15.281 85.6448 14.957C86.3738 14.471 87.2345 14.0862 88.2269 13.8027C89.2394 13.5192 90.2621 13.3774 91.295 13.3774ZM89.7761 26.5004C90.8292 26.5004 91.7203 26.1258 92.4493 25.3765C93.1784 24.6271 93.5935 23.6652 93.6948 22.4906L93.7555 21.64H92.905C91.4064 21.64 90.2318 21.721 89.3812 21.8831C88.5306 22.0451 87.9231 22.3083 87.5586 22.6729C87.194 23.0374 87.0118 23.5437 87.0118 24.1917C87.0118 24.9005 87.2548 25.4676 87.7408 25.8929C88.2471 26.2979 88.9255 26.5004 89.7761 26.5004Z" fill="white"/>
<path d="M118.396 13.3774C119.935 13.3774 121.1 13.8128 121.89 14.6836C122.7 15.5342 123.105 16.7898 123.105 18.4504C123.105 18.8757 123.095 19.1997 123.074 19.4225L122.467 27.2598C122.426 27.7661 122.254 28.1408 121.95 28.3838C121.647 28.6066 121.272 28.718 120.827 28.718C120.381 28.718 120.016 28.5965 119.733 28.3534C119.47 28.1104 119.358 27.7459 119.399 27.2598L120.006 19.544C120.027 19.382 120.037 19.1491 120.037 18.8453C120.037 16.8607 119.166 15.8683 117.424 15.8683C116.29 15.8683 115.389 16.243 114.721 16.9923C114.073 17.7214 113.688 18.8048 113.566 20.2427L113.02 27.2598C112.979 27.7661 112.807 28.1408 112.503 28.3838C112.199 28.6066 111.825 28.718 111.379 28.718C110.934 28.718 110.569 28.5965 110.286 28.3534C110.022 28.1104 109.911 27.7459 109.951 27.2598L110.559 19.5744C110.579 19.4124 110.589 19.1693 110.589 18.8453C110.589 17.8327 110.367 17.0834 109.921 16.5974C109.496 16.1114 108.838 15.8683 107.947 15.8683C106.812 15.8683 105.921 16.243 105.273 16.9923C104.625 17.7214 104.24 18.8048 104.119 20.2427L103.542 27.2598C103.501 27.7661 103.329 28.1408 103.025 28.3838C102.722 28.6066 102.347 28.718 101.901 28.718C101.456 28.718 101.091 28.5965 100.808 28.3534C100.545 28.1104 100.433 27.7459 100.474 27.2598L101.476 14.8355C101.496 14.39 101.669 14.0457 101.993 13.8027C102.337 13.5597 102.722 13.4382 103.147 13.4382C103.572 13.4382 103.906 13.5597 104.149 13.8027C104.392 14.0254 104.504 14.3596 104.483 14.8051L104.423 15.7772C105.435 14.1773 106.964 13.3774 109.01 13.3774C110.124 13.3774 111.045 13.6103 111.774 14.0761C112.503 14.5419 113.03 15.2203 113.354 16.1114C113.88 15.2405 114.579 14.5722 115.45 14.1065C116.321 13.6204 117.303 13.3774 118.396 13.3774Z" fill="white"/>
</svg>
