<svg width="655" height="250" viewBox="0 0 655 250" fill="none" xmlns="http://www.w3.org/2000/svg">
<g clip-path="url(#clip0)">
<path d="M51.1272 174.775C51.5013 175.756 64.2687 177.294 71.2661 181.43C73.9494 183.016 75.9809 189.88 75.8492 190.01C72.6771 193.139 70.9533 194.733 69.2457 195.694C63.2427 199.072 58.6162 198.194 54.1367 197.487C48.7522 196.637 45.5528 190.726 47.6521 185.818C47.9811 185.049 48.81 183.926 50.1822 182.345L50.3648 182.137C50.3592 182.081 50.36 182.023 50.3669 181.964C50.4296 181.434 50.4374 180.891 50.39 180.333L50.2838 179.334C50.1585 178.216 49.916 176.32 49.5556 175.375C49.39 174.941 49.6076 174.455 50.0416 174.289C50.4756 174.124 50.9616 174.341 51.1272 174.775Z" fill="white"/>
<path d="M80.6086 187.301C80.6075 187.099 80.6583 186.894 80.7655 186.706C80.952 186.378 81.2691 186.172 81.614 186.115C81.6945 186.042 81.7493 186.016 81.7805 186.046L81.8327 186.099C82.0271 186.102 82.2234 186.153 82.4043 186.256L85.9384 188.263C93.2644 192.452 101.139 198.681 101.899 203.411C102.76 208.77 97.1481 236.661 96.4996 236.52C95.8511 236.38 83.6949 264.004 83.6878 264.079C83.6639 264.33 72.8574 264.731 61.4891 265.948C57.5161 266.373 67.834 252.512 71.7158 242.712C78.3728 225.907 80.6086 187.301 80.6086 187.301Z" fill="white"/>
<path d="M90.7335 176.985C90.6479 177.669 90.9374 180.182 89.9711 181.342C89.5881 181.802 88.6729 182.131 88.076 181.841C87.8121 181.713 88.635 180.566 89.1349 179.27C89.328 178.769 88.9887 178.164 89.1349 177.686C89.2627 177.267 89.8817 176.966 89.9711 176.651C90.1133 176.151 90.79 176.533 90.7335 176.985Z" fill="white"/>
<path d="M92.4048 174.049C92.3192 174.733 94.3487 177.918 93.3354 178.939C91.6126 180.674 89.9565 177.631 90.4564 176.335C90.6495 175.834 90.66 175.229 90.8061 174.75C90.934 174.332 92.4613 173.598 92.4048 174.049Z" fill="white"/>
<path d="M49.739 180.382C50.4026 180.377 50.9444 180.911 50.9495 181.575C50.9499 181.645 50.9445 181.713 50.9336 181.779L51.0367 181.712C51.6133 181.356 52.3269 181.176 52.1744 182.048C51.9617 183.264 48.9173 184.678 48.9173 187.018C48.9173 190.491 50.2566 193.816 55.0742 195.205C68.5669 199.097 75.2306 192.199 77.725 189.223C77.7239 189.021 77.7747 188.816 77.8819 188.628C78.0684 188.301 78.3855 188.094 78.7303 188.037C78.8109 187.964 78.8657 187.939 78.8968 187.969L78.949 188.021C79.1435 188.025 79.3398 188.076 79.5206 188.179L83.0548 190.186C90.3808 194.374 98.2555 200.603 99.0152 205.333C99.8762 210.693 94.2645 238.583 93.616 238.443C92.9674 238.302 80.8113 265.926 80.8042 266.001C80.7719 266.341 61.1035 266.952 46.9169 269.473C37.6138 271.127 31.5598 274.228 31.364 274.403C30.8696 274.846 30.2951 275.612 29.8525 275.118C26.8809 271.798 26.0888 262.47 27.2366 248.741L26.6355 248.679C14.3396 247.437 8.27425 243.979 8.6871 236.192C9.69993 217.089 15.0779 202.119 21.3342 192.849C26.8892 184.619 35.7626 180.482 49.739 180.382Z" fill="white"/>
<path fill-rule="evenodd" clip-rule="evenodd" d="M77.7249 189.223C77.7238 189.021 77.7746 188.816 77.8819 188.628C78.0683 188.301 78.3854 188.094 78.7303 188.037C78.8109 187.964 78.8656 187.939 78.8968 187.968L78.949 188.021C79.1434 188.025 79.3397 188.075 79.5206 188.178L83.0548 190.186C90.3808 194.374 98.2554 200.603 99.0152 205.333C99.8761 210.693 94.2644 238.583 93.6159 238.443C92.9674 238.302 80.8112 265.926 80.8041 266.001C80.7802 266.253 69.9737 266.653 58.6054 267.87C54.6324 268.295 64.9503 254.434 68.8321 244.635C75.4891 227.829 77.7249 189.223 77.7249 189.223Z" fill="#E7EAEE"/>
<path d="M78.3562 188.831C78.3796 189.494 77.8181 190.05 77.1546 190.033C73.8397 189.949 73.3127 184.249 73.6307 184.226C74.0708 184.194 74.8228 186.902 76.3029 187.888C77.4314 188.64 78.2916 187.004 78.3562 188.831Z" fill="white"/>
<path d="M48.3124 173.605C48.7709 173.055 49.6274 173.542 49.9269 174.134C50.2265 174.726 49.9893 175.449 49.3971 175.749C46.3754 177.277 42.352 176.71 39.8732 174.589C35.5674 170.903 35.3911 161.338 35.3911 158.483C35.3911 158.102 40.3043 158.552 42.3423 161.218C45.9565 165.946 47.7215 174.312 48.3124 173.605Z" fill="white"/>
<path d="M47.9908 147.628L48.0368 147.375C48.0753 147.151 48.0748 146.907 47.9595 145.7L47.5754 141.923C47.5027 141.202 47.4445 140.581 47.394 139.976L47.3542 139.483C47.0079 135.034 47.1747 132.506 48.376 131.33C51.7669 128.012 53.6404 128.084 57.172 129.228L57.9122 129.469C59.4816 129.966 60.2678 129.582 61.3411 129.33L61.6516 129.259C64.14 128.714 66.7334 128.613 69.7153 128.872C71.4592 129.024 72.5384 129.167 75.3062 129.643L78.5744 130.216C80.6197 130.575 81.9979 130.8 83.4564 130.998L83.7779 131.04C86.1157 131.323 88.0181 131.153 90.3146 130.635C90.3619 130.624 91.5981 130.333 92.083 130.229L92.3759 130.17C92.8304 130.086 93.2154 130.041 93.574 130.041L93.6304 130.01C97.135 128.191 100.47 122.512 100.195 117.956C99.854 112.304 94.4847 108.717 82.955 108.646L82.3938 108.643C80.4897 108.623 79.0983 108.308 75.1009 107.083L73.1282 106.474C69.7043 105.425 67.6414 104.948 65.432 104.799C65.0517 104.774 64.6789 104.761 64.3127 104.761C48.9959 104.761 33.9075 117.812 31.8309 130.01C31.4538 132.224 33.1617 141.995 33.7793 146.852C33.7793 146.852 39.7295 146.917 42.6262 147.335C42.9024 147.375 45.2507 152.494 46.6738 152.494C47.9595 152.494 47.9908 147.628 47.9908 147.628Z" fill="white"/>
<path d="M56.7994 131.154C58.9343 131.856 60.1069 132.056 61.7216 131.707L62.3143 131.573C66.1428 130.736 69.074 130.989 77.2642 132.425L79.2285 132.769C80.7459 133.03 81.9083 133.213 83.1317 133.379C85.8271 133.747 88.0042 133.593 90.5263 133.049L93.1003 132.473C93.5439 132.381 93.4893 132.416 93.6493 132.441L93.7236 132.451C94.0608 132.482 95.2044 132.654 95.4732 133.43C97.128 138.212 97.6085 149.624 95.8513 159.018C93.4652 171.774 86.6187 180.519 76.8338 183.175C61.9232 187.222 50.7134 179.532 42.953 159.669L42.7143 159.058L42.0711 158.929L41.6121 158.833C34.2255 157.251 31.7308 154.412 34.2278 149.79C35.4784 147.475 37.1916 146.758 38.6194 147.243C40.3566 147.832 42.5454 150.103 45.0464 154.069L45.0744 154.111C46.1713 155.698 47.6936 155.09 48.4671 153.405C48.9496 152.354 49.4081 150.596 49.8703 148.081L49.9632 147.567C50.0416 147.086 50.0049 146.701 49.6023 142.815L49.4597 141.423C49.4087 140.909 49.3654 140.446 49.3269 139.998L49.3081 139.776C49.1501 137.883 49.0921 136.375 49.1515 135.189C49.2119 133.984 49.4053 133.215 49.576 133.048L49.8615 132.773C52.342 130.424 53.7483 130.189 56.2861 130.987L56.7994 131.154Z" fill="white"/>
<path fill-rule="evenodd" clip-rule="evenodd" d="M95.8514 159.018C93.4653 171.774 86.6188 180.519 76.8339 183.175C73.9863 183.948 82.2335 180.891 86.5778 175.397C92.5349 167.862 95.8862 156.705 96.4382 153.326C98.1084 143.103 97.6086 149.623 95.8514 159.018Z" fill="#E7EAEE"/>
<path fill-rule="evenodd" clip-rule="evenodd" d="M48.4672 153.405C48.9497 152.354 49.4082 150.596 49.8704 148.081L49.9633 147.567C50.0417 147.086 50.005 146.701 49.6024 142.815L49.4598 141.423C49.4088 140.909 49.3655 140.446 49.327 139.998L49.3082 139.776C49.1502 137.883 49.0922 136.375 49.1516 135.189C49.212 133.984 49.4054 133.215 49.5761 133.048L49.8616 132.773C52.3421 130.424 53.7484 130.189 56.2862 130.987L56.7995 131.154C58.9344 131.856 60.107 132.056 61.7217 131.707L62.3145 131.573C66.1429 130.736 69.0741 130.989 77.2643 132.425L79.2286 132.769C80.746 133.03 81.9084 133.213 83.1318 133.379C85.8272 133.747 88.0043 133.593 90.5264 133.049L93.1004 132.473C93.544 132.381 93.4894 132.416 93.6495 132.441L93.7237 132.451C94.0609 132.482 95.2045 132.654 95.4733 133.43C95.4733 133.43 94.4309 134.275 93.6495 134.332C86.8411 134.833 81.8909 136.021 76.6287 136.525C68.3311 137.32 60.9104 137.592 56.7995 139.776C54.8131 140.831 52.7042 151.709 50.0565 155.396C48.5568 157.485 48.4672 153.405 48.4672 153.405Z" fill="#E7EAEE"/>
<path fill-rule="evenodd" clip-rule="evenodd" d="M27.789 212.929L27.7901 212.94C27.7906 213.031 27.9035 213.156 27.9234 213.425C28.0085 214.569 27.5229 217.264 27.437 218.115C27.2119 220.107 26.8186 222.599 26.7479 224.98C26.7025 226.518 26.7837 228.01 27.221 229.274C28.1305 231.995 30.2292 233.67 32.7651 234.739C35.0335 235.698 37.6589 236.12 40.1773 236.422C42.0141 236.641 43.7866 236.824 45.3585 236.912C45.6271 236.912 45.8452 237.131 45.8452 237.4C45.8452 237.669 45.6271 237.885 45.3585 237.885C43.7522 237.977 41.9282 238.088 40.0409 237.982C37.3412 237.833 34.5423 237.292 32.1173 236.289C29.1225 235.047 26.7047 233.01 25.6367 229.8C25.1716 228.351 25.0621 226.649 25.1855 224.9C25.3565 222.477 25.9455 219.969 26.2942 217.951C26.4508 217.106 26.7335 214.364 27.1703 213.3C27.384 212.776 27.7529 212.712 27.7651 212.743C27.8159 212.793 27.8239 212.87 27.789 212.929Z" fill="#00160A"/>
<path fill-rule="evenodd" clip-rule="evenodd" d="M52.0103 232.54L50.5535 232.772C50.095 232.868 49.5731 233.054 49.1363 233.339C48.8131 233.55 48.5476 233.824 48.3677 234.144C48.2837 234.298 48.2355 234.452 48.2017 234.606C48.1382 234.896 48.1559 235.19 48.1049 235.501C48.0639 235.747 48.0495 235.99 48.0578 236.233C48.0692 236.566 48.1252 236.896 48.1598 237.23C48.236 237.759 48.2601 238.266 48.4666 238.733C48.5598 238.943 48.685 239.13 48.845 239.322C48.9209 239.459 49.0933 239.508 49.23 239.432C49.3666 239.356 49.416 239.184 49.34 239.047C49.34 239.047 48.3932 234.657 49.5464 233.929C50.6996 233.201 51.3393 233.296 51.6766 233.212C51.8146 233.178 52.1151 232.808 52.1322 232.724C52.1494 232.64 52.0948 232.557 52.0103 232.54Z" fill="#00160A"/>
<path fill-rule="evenodd" clip-rule="evenodd" d="M48.6966 235.163C48.9613 235.461 48.9349 235.916 48.6375 236.181C48.1854 236.584 47.789 236.891 47.442 237.104L47.2728 237.204C46.977 237.371 46.5832 237.565 46.0873 237.787C46.0256 237.814 45.4525 237.995 45.2436 237.833C45.133 237.748 45.011 237.646 44.9473 237.501C44.9176 237.433 45.0187 237.3 45.2048 237.13C45.515 236.847 46.3402 236.694 46.9106 236.337C47.8438 235.753 48.5627 235.013 48.6966 235.163Z" fill="#00160A"/>
<path fill-rule="evenodd" clip-rule="evenodd" d="M51.2565 241.964C51.5384 241.682 51.9949 241.683 52.276 241.965C53.5084 243.201 53.8755 244.385 53.0762 245.361C52.5655 245.984 51.8389 246.528 50.8085 246.941C50.3278 247.133 50.386 247.224 49.132 247.499C48.7431 247.585 48.3586 247.339 48.2733 246.95C48.1879 246.561 48.434 246.176 48.8229 246.091L49.3277 245.978C50.2321 245.77 51.6013 244.886 51.961 244.447C52.1658 244.197 52.0308 243.761 51.255 242.983C50.9738 242.701 50.9745 242.245 51.2565 241.964Z" fill="#00160A"/>
<path fill-rule="evenodd" clip-rule="evenodd" d="M67.7258 166.403C67.9459 166.711 68.218 166.994 68.5391 167.241C68.8779 167.505 69.2717 167.67 69.6643 167.786C70.4307 167.991 71.1871 168.196 71.969 168.324C74.3769 168.717 80.4104 169.376 81.0033 169.486C81.4033 169.604 81.8225 169.373 81.9383 168.972C82.0542 168.571 81.823 168.152 81.4229 168.035C80.8198 167.793 80.2234 167.565 79.6005 167.405C78.6782 167.167 77.7309 167.056 76.7869 166.947C75.1778 166.755 73.5635 166.596 71.9465 166.496C71.2594 166.456 70.5819 166.466 69.895 166.42C69.6824 166.412 69.4688 166.38 69.2572 166.312C68.8953 166.198 68.5458 166.062 68.2519 165.862L67.4678 165.275C67.3824 165.274 67.3124 165.345 67.3126 165.432C67.3129 165.519 67.666 166.311 67.7258 166.403Z" fill="#00160A"/>
<path fill-rule="evenodd" clip-rule="evenodd" d="M75.2647 172.154C75.6732 172.594 76.3448 172.963 77.0854 173.074C77.8365 173.182 78.6087 172.999 79.1307 172.708C79.2914 172.628 79.3566 172.431 79.2762 172.27C79.1958 172.109 79.0001 172.046 78.8396 172.126C78.4821 172.281 78.0045 172.306 77.5139 172.284C77.3074 172.273 77.0995 172.245 76.8928 172.228C76.3531 172.179 75.8392 172.137 75.4637 171.913C75.3971 171.86 75.2985 171.868 75.2436 171.935C75.1887 172.001 75.1981 172.098 75.2647 172.154Z" fill="#00160A"/>
<path fill-rule="evenodd" clip-rule="evenodd" d="M48.1495 180.394C48.8131 180.389 49.3549 180.924 49.3596 181.587C49.3644 182.251 48.8303 182.792 48.1667 182.797C34.9167 182.892 25.8323 186.713 20.7754 194.206C14.7818 203.086 9.1304 217.577 9.49735 236.331C9.77038 250.286 39.1161 248.071 46.1521 247.698C47.0916 247.648 47.7315 248.148 47.7244 248.223C47.671 248.785 47.2248 249.248 46.6417 249.304C38.0675 250.117 30.8602 249.279 25.046 248.691C12.7501 247.449 6.68477 243.991 7.09762 236.204C8.11045 217.101 13.4885 202.131 19.7447 192.861C25.2997 184.631 34.1731 180.494 48.1495 180.394Z" fill="#00160A"/>
<path fill-rule="evenodd" clip-rule="evenodd" d="M48.376 131.33C47.1747 132.505 47.0079 135.034 47.3542 139.483L47.394 139.976C47.4445 140.581 47.5027 141.202 47.5753 141.923L47.9595 145.7C48.0747 146.907 48.0753 147.151 48.0368 147.375L47.9908 147.628C47.662 149.419 46.8593 151.262 46.5563 152.173L46.4921 152.358L46.4559 152.303C43.9282 148.488 41.61 145.719 39.3912 144.967C36.6818 144.048 34.345 145.407 32.5942 148.648L32.4926 148.839C29.3055 154.94 32.8214 158.715 41.2695 160.631L41.434 160.667L41.6903 161.302C49.8559 181.296 61.5387 189.817 77.4634 185.494C88.3048 182.551 94.7144 173.028 97.2522 159.46C99.082 149.678 98.5839 137.848 96.7829 132.644C96.229 131.044 95.3181 130.185 93.9455 130.058C93.4783 130.014 92.9908 130.056 92.3759 130.17L92.083 130.229C91.598 130.333 90.3619 130.624 90.3146 130.635C88.0181 131.153 86.1156 131.323 83.7779 131.04L83.4564 130.998C81.9979 130.799 80.6197 130.575 78.5744 130.215L75.3062 129.643C72.5384 129.167 71.4592 129.024 69.7153 128.872C66.7334 128.613 64.14 128.714 61.6516 129.259L61.3411 129.33C60.2678 129.581 59.4816 129.966 57.9122 129.469L57.1719 129.228C53.6404 128.084 51.7669 128.012 48.376 131.33ZM56.7994 131.154C58.9343 131.856 60.1069 132.056 61.7216 131.707L62.3144 131.573C66.1428 130.736 69.074 130.989 77.2642 132.425L79.2285 132.769C80.7459 133.029 81.9083 133.213 83.1317 133.379C85.8271 133.747 88.0042 133.593 90.5263 133.049L93.1003 132.473C93.5439 132.381 93.4893 132.416 93.6494 132.441L93.7236 132.451C94.0608 132.482 95.2044 132.654 95.4732 133.43C97.1281 138.212 97.6086 149.623 95.8513 159.018C93.4652 171.774 86.6187 180.519 76.8338 183.175C61.9232 187.222 50.7134 179.532 42.953 159.669L42.7143 159.058L42.0711 158.929L41.6121 158.833C34.2255 157.251 31.7308 154.412 34.2278 149.79C35.4784 147.475 37.1916 146.758 38.6194 147.243C40.3566 147.832 42.5454 150.103 45.0464 154.069L45.0744 154.111C46.1713 155.698 47.6937 155.09 48.4671 153.405C48.9496 152.354 49.4081 150.596 49.8704 148.081L49.9632 147.567C50.0416 147.085 50.0049 146.701 49.6023 142.815L49.4597 141.423C49.4088 140.909 49.3654 140.446 49.3269 139.998L49.3081 139.776C49.1501 137.883 49.0921 136.374 49.1515 135.189C49.2119 133.984 49.4053 133.215 49.576 133.048L49.8615 132.773C52.342 130.424 53.7483 130.189 56.2861 130.987L56.7994 131.154Z" fill="#00160A"/>
<path fill-rule="evenodd" clip-rule="evenodd" d="M64.3128 102.358C64.7335 102.358 65.16 102.373 65.593 102.402C68.0322 102.565 70.2319 103.073 73.8154 104.171L75.9623 104.833C79.6975 105.974 80.9396 106.242 82.6038 106.242C95.5076 106.242 102.16 110.619 102.594 117.812C102.927 123.329 99.0725 129.893 94.7372 132.143C94.1482 132.448 93.4229 132.219 93.1173 131.629C92.8117 131.04 93.0415 130.315 93.6305 130.01C97.1351 128.191 100.47 122.512 100.195 117.956C99.8541 112.304 94.4848 108.717 82.955 108.646L82.3939 108.644C80.4898 108.623 79.0983 108.308 75.101 107.083L73.1283 106.474C69.7044 105.425 67.6414 104.948 65.4321 104.799C65.0517 104.774 64.6789 104.761 64.3128 104.761C48.9959 104.761 33.9075 117.812 31.8309 130.01C31.326 132.976 34.5603 149.493 33.9075 149.612C33.2547 149.731 32.6289 149.298 32.5098 148.645L32.3693 147.862C30.9765 139.967 29.4744 132.837 30.333 129.1C33.8094 113.971 47.8574 102.358 64.3128 102.358Z" fill="#00160A"/>
<path fill-rule="evenodd" clip-rule="evenodd" d="M81.34 137.293C82.0614 137.293 82.4058 138.906 82.2798 139.32C81.7332 141.115 83.1013 151.349 84.1148 153.993L84.1627 154.115C85.6335 157.775 83.4933 160.143 78.6453 160.803C77.9878 160.892 77.3822 160.432 77.2927 159.774C77.2648 159.569 77.4448 159.025 77.8971 159.065C81.2268 159.356 83.6428 156.5 82.9305 154.623L82.8391 154.39C81.6762 151.369 80.368 144.772 80.368 138.512C80.368 137.847 80.7074 137.293 81.34 137.293Z" fill="#00160A"/>
<path fill-rule="evenodd" clip-rule="evenodd" d="M35.3911 158.483C35.7373 159.324 35.4557 167.733 39.8732 172.291C43.3834 175.914 47.3755 174.726 48.3123 173.604C48.7708 173.055 49.6273 173.542 49.9269 174.134C50.2264 174.726 49.9892 175.449 49.3971 175.749C46.3754 177.277 42.352 176.71 39.8732 174.588C35.5673 170.903 34.6279 162.856 34.6279 160.002C34.6279 158.944 35.0827 157.735 35.3911 158.483Z" fill="#00160A"/>
<path fill-rule="evenodd" clip-rule="evenodd" d="M85.3824 147.981C85.8014 147.351 86.4151 147.276 87.0365 147.534C87.6422 147.786 88.2381 148.435 88.4324 148.871C88.7196 149.519 88.7234 150.579 88.4917 151.588C88.2553 152.62 87.7788 153.581 87.2633 154.015C86.773 154.424 86.3617 154.589 85.9222 153.94C84.2458 151.466 85.221 148.224 85.3824 147.981Z" fill="#00160A"/>
<path fill-rule="evenodd" clip-rule="evenodd" d="M66.6225 150.376C66.4405 149.708 66.4526 146.252 67.7585 146.252C69.7007 146.252 69.9484 149.849 69.6993 150.575C68.2949 154.668 66.8046 151.044 66.6225 150.376Z" fill="#00160A"/>
<path fill-rule="evenodd" clip-rule="evenodd" d="M83.2593 113.178C82.8784 112.653 84.382 112.491 84.9295 112.866C89.5125 116.004 91.8669 119.004 91.8262 121.997C91.7861 124.936 89.401 128.219 84.7776 132.006C84.2642 132.426 83.5071 132.351 83.0866 131.838C82.6662 131.324 89.0948 127.195 89.4233 121.964C89.7518 116.733 83.9739 114.165 83.2593 113.178Z" fill="#00160A"/>
<path fill-rule="evenodd" clip-rule="evenodd" d="M90.379 111.907C90.1834 111.055 91.4252 111.108 92.0083 111.425C95.7067 113.433 97.6106 116.547 97.6106 120.615C97.6106 124.6 94.9161 128.071 90.8509 132.092C90.379 132.558 89.6183 132.554 89.1516 132.082C88.685 131.61 95.7134 126.687 95.7134 119.589C95.7134 112.491 90.6446 113.065 90.379 111.907Z" fill="#00160A"/>
<ellipse cx="89.1711" cy="158.993" rx="4.56588" ry="1.68217" fill="#FFB61D"/>
<path fill-rule="evenodd" clip-rule="evenodd" d="M84.2687 138.729C85.3549 138.34 86.8549 138.58 88.8137 139.383C89.1468 139.52 89.4708 139.699 89.8242 139.932L90.0699 140.103C90.5249 140.427 91.2998 141.004 91.4506 141.11C91.9426 141.455 92.39 141.726 92.8736 141.96C93.335 142.183 94.0867 142.389 95.1135 142.564C95.506 142.631 95.7699 143.003 95.703 143.396C95.636 143.788 91.1737 143.158 90.6224 142.771L89.4874 141.941C89.2895 141.797 89.1192 141.675 89.0297 141.616C88.7488 141.43 88.5041 141.295 88.2665 141.198C86.6671 140.542 85.5074 140.342 84.8277 140.543L84.7541 140.567C83.3347 140.218 83.8938 138.863 84.2687 138.729Z" fill="#00160A"/>
<path fill-rule="evenodd" clip-rule="evenodd" d="M48.5997 174.289C49.0337 174.124 49.5198 174.341 49.6854 174.775C50.203 176.132 50.5072 179.115 50.5961 179.905C50.6826 180.674 50.6826 181.426 50.5955 182.162C50.541 182.623 50.1227 182.953 49.6614 182.898C49.2001 182.844 48.8704 182.425 48.925 181.964C48.9967 181.359 48.9967 180.735 48.9245 180.093C48.8547 179.473 48.5851 176.61 48.1137 175.375C47.9481 174.941 48.1657 174.455 48.5997 174.289Z" fill="#00160A"/>
<path fill-rule="evenodd" clip-rule="evenodd" d="M48.8895 182.174C49.3263 181.674 50.7976 180.844 50.5849 182.06C50.3722 183.276 47.3278 184.69 47.3278 187.03C47.3278 190.503 48.6672 193.828 53.4847 195.217C70.7416 200.195 76.8278 187.522 77.3074 187.981C77.7869 188.439 77.8039 189.2 77.3452 189.679C74.6346 192.513 72.4492 194.403 70.7416 195.363C64.7387 198.741 58.2227 199.41 52.6949 197.487C47.639 195.727 44.1109 190.726 46.2103 185.818C46.5509 185.021 47.428 183.845 48.8895 182.174Z" fill="#00160A"/>
<path fill-rule="evenodd" clip-rule="evenodd" d="M70.08 137.331C71.0709 137.208 72.7844 137.377 74.664 137.968C75.2971 138.167 75.649 138.841 75.45 139.474C75.251 140.108 74.5765 140.459 73.9435 140.26C72.3492 139.759 71.1191 139.503 70.2852 139.481L70.08 139.481C69.7876 139.487 69.5742 139.539 68.7461 139.855L67.5006 140.342C66.3076 140.812 65.4291 141.089 64.4562 141.249C63.3593 141.429 61.7042 141.356 59.4313 141.047C58.7738 140.957 57.6496 140.177 58.4026 139.694C59.1556 139.211 62.3398 139.738 63.8327 139.474C65.3256 139.211 68.1594 137.571 70.08 137.331Z" fill="#00160A"/>
<path fill-rule="evenodd" clip-rule="evenodd" d="M18.7298 219.649C24.1407 219.554 26.4464 221.058 25.9486 221.545C25.9486 221.545 20.2008 221.107 18.7298 221.058C17.1748 221.007 10.0568 220.899 9.8608 220.265C9.7863 220.024 9.79143 219.778 9.86123 219.554C9.93417 219.32 11.3331 219.464 13.7522 219.572C15.1086 219.633 16.7858 219.683 18.7298 219.649Z" fill="#00160A"/>
<path fill-rule="evenodd" clip-rule="evenodd" d="M27.284 248.718C27.284 248.718 26.7972 271.657 30.0535 273.527C30.5033 273.785 30.4541 274.781 29.9597 275.224C29.4653 275.666 28.7056 275.624 28.263 275.13C25.2709 271.787 24.4884 262.353 25.6712 248.467C25.7253 247.832 27.3403 248.056 27.284 248.718Z" fill="#00160A"/>
<path fill-rule="evenodd" clip-rule="evenodd" d="M91.7319 172.574C90.9922 173.136 91.8958 173.929 92.1851 174.793C92.2511 174.991 92.3352 175.194 92.446 175.431L92.5815 175.713L92.8879 176.323L93.015 176.582C93.1514 176.866 93.2482 177.089 93.3253 177.301C93.5636 177.957 93.5412 178.252 93.3171 178.452C92.0551 179.578 90.7144 180.332 88.1452 181.47L86.7266 182.091C82.4495 183.981 79.5958 185.235 77.9872 187.793C75.8645 191.168 76.4307 196.006 77.911 203.052L77.9806 203.379C78.2645 204.692 77.7194 207.09 77.3274 210.723L77.2988 210.985C77.1385 212.437 76.9315 214.063 76.6483 216.127L75.5196 224.136C75.0931 227.199 74.7759 229.636 74.5012 232.022L74.3971 232.943C73.5707 240.404 73.3325 246.27 73.811 251.035C74.2262 255.169 76.6472 261.082 79.5037 263.907C83.7009 268.059 87.8725 266.092 91.6468 257.508C93.3337 253.672 94.3765 250.071 94.8749 246.41C95.5412 241.515 95.2678 236.525 94.1062 229.794L93.9856 229.109C93.1912 224.746 89.7198 208.668 89.3056 206.629L89.1716 205.98L88.2895 201.87C88.233 201.602 88.1802 201.348 88.1291 201.099L87.9654 200.285C87.2353 196.575 86.982 194.112 87.257 192.519C87.2829 192.369 87.41 192.148 87.6697 191.867C88.074 191.431 88.7163 190.938 89.6619 190.328L90.0828 190.063C90.968 189.518 93.075 188.264 93.0898 188.255L93.5426 187.977C97.9917 185.224 100.084 183.066 100.084 180.011C100.084 176.975 98.8033 174.656 96.7242 173.271C94.9958 172.121 92.8191 171.748 91.7319 172.574ZM94.1555 175.409L93.7423 174.579L93.696 174.57C94.2337 174.662 94.8389 174.903 95.3923 175.272C96.8116 176.217 97.6808 177.791 97.6808 180.011C97.6808 181.909 96.0041 183.627 92.2601 185.945L91.6056 186.342C90.9652 186.724 89.2124 187.77 88.6058 188.152L88.5553 188.184C87.3486 188.949 86.51 189.583 85.9063 190.235C85.3572 190.828 85.0045 191.44 84.8889 192.11C84.5326 194.174 84.844 196.986 85.7161 201.292L85.9377 202.364L86.746 206.123L87.1996 208.298C88.1268 212.688 90.9873 226.004 91.6427 229.658L91.6642 229.779C92.8496 236.506 93.1356 241.371 92.4937 246.086C92.0264 249.519 91.0459 252.905 89.4469 256.541C87.7205 260.467 85.9853 262.667 84.389 263.341C83.1953 263.846 81.9989 263.471 80.713 262.199C78.2929 259.805 76.0847 254.412 75.7215 250.795C75.2632 246.232 75.496 240.51 76.3058 233.2L76.4079 232.297C76.692 229.829 77.0226 227.302 77.4752 224.065L78.4607 217.09L78.6723 215.543C78.8831 213.978 79.0479 212.666 79.182 211.471L79.2666 210.694C79.6494 207.056 79.7124 204.599 79.3929 202.99L79.3682 202.871C77.927 196.205 77.7742 191.881 79.5409 189.072C80.792 187.082 82.8343 186.027 86.534 184.379L88.1825 183.656C90.9573 182.426 92.4607 181.58 93.9561 180.245C95.0613 179.258 95.1601 177.959 94.6227 176.48C94.5007 176.145 94.3574 175.821 94.1555 175.409Z" fill="#00160A"/>
<path d="M94.1555 175.409L93.7423 174.579L93.696 174.57C94.2337 174.662 94.8389 174.903 95.3924 175.272C96.8116 176.217 97.6809 177.791 97.6809 180.011C97.6809 181.909 96.0042 183.627 92.2601 185.945L91.6056 186.342C90.9652 186.724 89.2125 187.77 88.6058 188.152L88.5553 188.184C87.3487 188.949 86.5101 189.583 85.9063 190.235C85.3572 190.828 85.0045 191.44 84.8889 192.11C84.5327 194.174 84.844 196.986 85.7161 201.292L85.9378 202.364L86.7461 206.123L87.1996 208.298C88.1268 212.688 90.9873 226.004 91.6427 229.658L91.6642 229.779C92.8497 236.506 93.1356 241.371 92.4938 246.086C92.0264 249.519 91.046 252.905 89.4469 256.541C87.7206 260.467 85.9853 262.667 84.3891 263.341C83.1954 263.846 81.999 263.471 80.713 262.199C78.293 259.805 76.0848 254.412 75.7215 250.795C75.2632 246.232 75.496 240.51 76.3059 233.2L76.4079 232.297C76.692 229.829 77.0227 227.302 77.4753 224.065L78.4608 217.09L78.6723 215.543C78.8831 213.978 79.0479 212.666 79.182 211.471L79.2666 210.694C79.6495 207.056 79.7124 204.599 79.3929 202.99L79.3682 202.871C77.927 196.205 77.7742 191.881 79.5409 189.072C80.7921 187.082 82.8344 186.027 86.5341 184.379L88.1826 183.656C90.9573 182.426 92.4608 181.58 93.9561 180.245C95.0614 179.258 95.1602 177.959 94.6227 176.48C94.5007 176.145 94.3574 175.821 94.1555 175.409Z" fill="white"/>
<path fill-rule="evenodd" clip-rule="evenodd" d="M86.3855 191.524C86.7139 190.947 87.4475 190.746 88.0242 191.074C94.9605 195.025 98.935 199.781 99.8289 205.345C100.69 210.705 95.0781 238.595 94.4296 238.455C93.781 238.314 93.3692 237.675 93.5098 237.026L93.8132 235.614C97.0219 220.547 98.2289 210.537 97.4562 205.726C96.6925 200.972 93.1916 196.783 86.8349 193.163C86.2583 192.834 86.057 192.1 86.3855 191.524Z" fill="#00160A"/>
<path fill-rule="evenodd" clip-rule="evenodd" d="M89.24 175.45C89.7983 175.091 90.5417 175.253 90.9003 175.811C91.5183 176.773 91.8884 177.556 92.0041 178.225C92.118 178.884 92.0413 179.767 91.7999 180.943C91.6665 181.593 91.0313 182.012 90.3813 181.879C90.077 181.816 89.8234 181.644 89.6534 181.412C89.4602 181.148 90.5974 180.46 90.5974 178.634C90.5974 176.808 88.6817 175.809 89.24 175.45Z" fill="#00160A"/>
<path fill-rule="evenodd" clip-rule="evenodd" d="M88.8011 177.302C89.0921 177.059 89.3481 177.975 89.2916 178.427C89.2061 179.111 89.2061 181.567 88.2398 182.727C87.8568 183.187 87.231 183.573 86.6341 183.283C86.3702 183.155 87.1931 182.008 87.693 180.712C88.0551 179.773 88.3376 178.768 88.5292 178.093C88.6714 177.593 88.4998 177.553 88.8011 177.302Z" fill="#00160A"/>
<path d="M52.6266 235.199C54.054 235.247 54.5901 236.846 53.7587 238.452C53.1832 239.564 51.7764 240.733 50.3233 241.42C49.4936 241.813 48.5319 241.864 47.4618 241.595C47.0758 241.498 46.8416 241.106 46.9389 240.72C47.0362 240.333 47.428 240.099 47.8141 240.197C48.5787 240.389 47.9839 239.329 47.9402 238.933C47.8964 238.538 48.1817 238.181 48.5775 238.137C49.3026 238.057 49.6816 237.682 50.0497 237.43C50.1529 237.36 50.2875 237.219 50.4765 236.982L50.6907 236.705L50.7648 236.607C51.5777 235.527 51.8962 235.199 52.5523 235.198L52.6266 235.199Z" fill="white"/>
<path fill-rule="evenodd" clip-rule="evenodd" d="M52.6266 235.199C54.054 235.247 54.5901 236.846 53.7587 238.452C53.1832 239.564 51.7764 240.733 50.3233 241.42C49.4936 241.813 48.5319 241.864 47.4618 241.595C47.0758 241.498 46.8416 241.106 46.9389 240.72C47.0362 240.333 47.428 240.099 47.8141 240.197C48.5787 240.389 49.2017 240.356 49.7066 240.117C50.8988 239.553 52.0683 238.581 52.4782 237.789C52.7145 237.333 52.7652 236.976 52.6935 236.762C52.678 236.716 52.6614 236.686 52.6426 236.667L52.6238 236.653L52.5987 236.672C52.5778 236.688 52.5543 236.709 52.5285 236.733L52.488 236.772C52.3676 236.893 52.2578 237.025 52.0442 237.306L51.7561 237.686C51.4031 238.148 51.157 238.42 50.864 238.62C50.2788 239.021 49.6788 239.466 48.736 239.571C48.3402 239.614 47.9839 239.329 47.9402 238.933C47.8964 238.538 48.1817 238.181 48.5775 238.137C49.3026 238.057 49.6816 237.682 50.0497 237.43C50.1529 237.36 50.2875 237.219 50.4765 236.982L50.6907 236.705L50.7648 236.607C51.5777 235.527 51.8962 235.199 52.5523 235.198L52.6266 235.199Z" fill="#00160A"/>
<path fill-rule="evenodd" clip-rule="evenodd" d="M53.1428 238.413C54.019 238.442 54.3404 239.211 54.2699 240.111C54.2173 240.782 53.9463 241.5 53.5354 241.958C53.0152 242.538 52.2888 243.036 51.3051 243.55L51.105 243.653C50.7498 243.833 50.5043 243.949 49.8548 244.25C49.058 244.619 47.9964 244.751 46.6612 244.669C46.2638 244.645 45.9613 244.303 45.9856 243.906C46.0099 243.508 46.3517 243.206 46.7492 243.23C47.8666 243.298 48.7029 243.194 49.2492 242.941L49.9266 242.625C50.1242 242.532 50.2745 242.458 50.4528 242.367C51.3927 241.891 52.0541 241.45 52.4621 240.995C52.6297 240.808 52.7766 240.441 52.8225 240.092L52.8325 239.998L52.8334 239.978L52.7774 240.012C52.6383 240.149 50.8888 241.202 50.6997 241.239C48.2381 241.729 48.6869 241.533 47.744 241.637C47.3483 241.681 46.992 241.396 46.9482 241C46.9044 240.604 47.1898 240.248 47.5855 240.204C47.8462 240.176 48.3362 240.641 48.8791 240.598C49.3431 240.561 50.4922 239.97 50.4922 239.97L50.9875 239.557C51.1101 239.455 51.2161 239.369 51.3184 239.288L51.5616 239.099C52.1887 238.628 52.6524 238.396 53.1428 238.413Z" fill="#00160A"/>
<path fill-rule="evenodd" clip-rule="evenodd" d="M50.6221 245.433C51.5996 245.077 52.402 245.952 52.7779 246.788C53.1859 247.695 52.6853 248.495 51.738 249.081C51.096 249.478 50.2241 249.78 49.5733 249.853C48.656 249.957 47.5654 249.65 46.2781 248.965C45.9266 248.778 45.7934 248.342 45.9804 247.99C46.1675 247.639 46.6041 247.505 46.9556 247.692C48.0094 248.253 48.8359 248.486 49.4116 248.421C49.8504 248.371 50.5187 248.139 50.9799 247.854C51.2094 247.712 52.1894 246.788 51.1157 246.788C50.7104 246.788 50.248 246.564 50.1915 246.358C50.135 246.151 50.248 245.57 50.6221 245.433Z" fill="#00160A"/>
<ellipse cx="67.567" cy="157.552" rx="4.97" ry="1.3964" transform="rotate(8.98976 67.567 157.552)" fill="#FFB61D"/>
<path fill-rule="evenodd" clip-rule="evenodd" d="M28.1767 189.519L29.044 191.342L30.99 191.88L29.5241 193.268L29.6142 195.285L27.841 194.32L25.9506 195.029L26.3206 193.044L25.0622 191.465L27.0641 191.204L28.1767 189.519Z" fill="#00160A"/>
<path fill-rule="evenodd" clip-rule="evenodd" d="M42.2212 186.153L42.848 187.546L44.2635 187.952L43.1926 189.019L43.2529 190.562L41.9643 189.828L40.5861 190.375L40.8606 188.855L39.9485 187.651L41.4067 187.445L42.2212 186.153Z" fill="#00160A"/>
<path fill-rule="evenodd" clip-rule="evenodd" d="M51.8337 214.99L52.4604 216.383L53.8759 216.79L52.805 217.856L52.8654 219.399L51.5767 218.665L50.1985 219.212L50.473 217.693L49.5609 216.488L51.0192 216.282L51.8337 214.99Z" fill="#00160A"/>
<path fill-rule="evenodd" clip-rule="evenodd" d="M93.6475 205.378L94.2743 206.771L95.6898 207.177L94.6189 208.243L94.6792 209.786L93.3906 209.053L92.0124 209.6L92.2869 208.08L91.3747 206.875L92.833 206.67L93.6475 205.378Z" fill="#00160A"/>
<path fill-rule="evenodd" clip-rule="evenodd" d="M36.3472 210.666L37.2145 212.49L39.1605 213.027L37.6947 214.415L37.7847 216.432L36.0115 215.467L34.1212 216.176L34.4911 214.191L33.2327 212.613L35.2346 212.351L36.3472 210.666Z" fill="#00160A"/>
<path fill-rule="evenodd" clip-rule="evenodd" d="M38.7503 197.209L39.6176 199.032L41.5636 199.57L40.0977 200.958L40.1878 202.975L38.4146 202.01L36.5243 202.719L36.8942 200.734L35.6358 199.155L37.6377 198.894L38.7503 197.209Z" fill="#00160A"/>
<path fill-rule="evenodd" clip-rule="evenodd" d="M60.3781 205.38L61.2454 207.203L63.1914 207.741L61.7255 209.129L61.8156 211.146L60.0424 210.181L58.1521 210.889L58.522 208.905L57.2636 207.326L59.2655 207.064L60.3781 205.38Z" fill="#00160A"/>
<path fill-rule="evenodd" clip-rule="evenodd" d="M72.8742 199.132L73.7415 200.955L75.6875 201.492L74.2216 202.881L74.3117 204.898L72.5385 203.932L70.6482 204.641L71.0181 202.657L69.7597 201.078L71.7616 200.816L72.8742 199.132Z" fill="#00160A"/>
<path fill-rule="evenodd" clip-rule="evenodd" d="M69.0293 218.356L69.8966 220.18L71.8426 220.717L70.3768 222.105L70.4669 224.122L68.6936 223.157L66.8033 223.866L67.1732 221.881L65.9148 220.303L67.9167 220.041L69.0293 218.356Z" fill="#00160A"/>
<path fill-rule="evenodd" clip-rule="evenodd" d="M37.3084 224.604L38.1757 226.428L40.1217 226.965L38.6558 228.353L38.7459 230.37L36.9727 229.405L35.0824 230.114L35.4523 228.129L34.1939 226.551L36.1958 226.289L37.3084 224.604Z" fill="#00160A"/>
<path fill-rule="evenodd" clip-rule="evenodd" d="M24.9357 203.456L25.7121 205.009L27.4446 205.472L26.1445 206.649L26.2301 208.365L24.6502 207.539L22.9707 208.137L23.2943 206.449L22.1706 205.103L23.9506 204.886L24.9357 203.456Z" fill="#00160A"/>
<path fill-rule="evenodd" clip-rule="evenodd" d="M16.2845 213.549L17.061 215.102L18.7935 215.565L17.4934 216.742L17.579 218.458L15.9991 217.632L14.3196 218.23L14.6432 216.542L13.5195 215.196L15.2995 214.979L16.2845 213.549Z" fill="#00160A"/>
<path fill-rule="evenodd" clip-rule="evenodd" d="M79.3175 188.351C79.341 189.014 78.7794 189.569 78.116 189.552C74.801 189.468 74.274 183.768 74.592 183.745C75.0321 183.713 75.7841 186.421 77.2642 187.407C78.3927 188.159 79.2529 186.523 79.3175 188.351Z" fill="#00160A"/>
<mask id="path-58-inside-1" fill="white">
<path fill-rule="evenodd" clip-rule="evenodd" d="M304.598 195.997C298.51 197.992 291.969 199.077 285.159 199.077C252.521 199.077 226.064 174.166 226.064 143.436C226.064 114.403 249.681 90.5632 279.813 88.0195C280.764 58.0736 306.846 34.0726 338.881 34.0726C353.517 34.0726 366.91 39.0824 377.232 47.3801C386.892 29.0333 406.986 16.4208 430.209 16.4208C446.413 16.4208 461.094 22.5617 471.77 32.5068C482.39 17.7082 500.373 7.97876 520.77 7.97876C552.189 7.97876 577.882 31.0662 579.755 60.2061C583.033 59.6754 586.403 59.3988 589.842 59.3988C622.479 59.3988 648.936 84.3102 648.936 115.04C648.936 145.77 622.479 170.681 589.842 170.681C586.663 170.681 583.543 170.445 580.5 169.99C572.52 191.828 550.51 207.519 524.607 207.519C517.48 207.519 510.648 206.331 504.321 204.154C494.83 222.934 474.49 235.915 450.931 235.915C434.707 235.915 420.011 229.76 409.332 219.795C398.519 232.874 381.639 241.288 362.672 241.288C333.792 241.288 309.75 221.781 304.598 195.997Z"/>
</mask>
<path fill-rule="evenodd" clip-rule="evenodd" d="M304.598 195.997C298.51 197.992 291.969 199.077 285.159 199.077C252.521 199.077 226.064 174.166 226.064 143.436C226.064 114.403 249.681 90.5632 279.813 88.0195C280.764 58.0736 306.846 34.0726 338.881 34.0726C353.517 34.0726 366.91 39.0824 377.232 47.3801C386.892 29.0333 406.986 16.4208 430.209 16.4208C446.413 16.4208 461.094 22.5617 471.77 32.5068C482.39 17.7082 500.373 7.97876 520.77 7.97876C552.189 7.97876 577.882 31.0662 579.755 60.2061C583.033 59.6754 586.403 59.3988 589.842 59.3988C622.479 59.3988 648.936 84.3102 648.936 115.04C648.936 145.77 622.479 170.681 589.842 170.681C586.663 170.681 583.543 170.445 580.5 169.99C572.52 191.828 550.51 207.519 524.607 207.519C517.48 207.519 510.648 206.331 504.321 204.154C494.83 222.934 474.49 235.915 450.931 235.915C434.707 235.915 420.011 229.76 409.332 219.795C398.519 232.874 381.639 241.288 362.672 241.288C333.792 241.288 309.75 221.781 304.598 195.997Z" fill="#1070CA"/>
<path d="M304.598 195.997L314.404 194.037L312.196 182.982L301.483 186.494L304.598 195.997ZM279.813 88.0195L280.654 97.9841L289.526 97.2352L289.808 88.337L279.813 88.0195ZM377.232 47.3801L370.967 55.1739L380.426 62.7782L386.08 52.039L377.232 47.3801ZM471.77 32.5068L464.954 39.8238L473.269 47.5697L479.895 38.3372L471.77 32.5068ZM579.755 60.2061L569.776 60.8476L570.482 71.8379L581.353 70.0775L579.755 60.2061ZM580.5 169.99L581.979 160.1L573.909 158.893L571.108 166.557L580.5 169.99ZM504.321 204.154L507.575 194.698L499.33 191.861L495.396 199.644L504.321 204.154ZM409.332 219.795L416.155 212.484L408.391 205.239L401.625 213.423L409.332 219.795ZM301.483 186.494C296.393 188.163 290.903 189.077 285.159 189.077V209.077C293.035 209.077 300.627 207.822 307.713 205.499L301.483 186.494ZM285.159 189.077C257.468 189.077 236.064 168.084 236.064 143.436H216.064C216.064 180.247 247.574 209.077 285.159 209.077V189.077ZM236.064 143.436C236.064 120.135 255.149 100.137 280.654 97.9841L278.972 78.055C244.212 80.9893 216.064 108.671 216.064 143.436H236.064ZM289.808 88.337C290.571 64.304 311.713 44.0726 338.881 44.0726V24.0726C301.979 24.0726 270.957 51.8431 269.818 87.7021L289.808 88.337ZM338.881 44.0726C351.215 44.0726 362.402 48.2892 370.967 55.1739L383.498 39.5862C371.418 29.8756 355.819 24.0726 338.881 24.0726V44.0726ZM386.08 52.039C393.972 37.0508 410.614 26.4208 430.209 26.4208V6.42078C403.358 6.42078 379.812 21.0158 368.384 42.7211L386.08 52.039ZM430.209 26.4208C443.864 26.4208 456.115 31.5896 464.954 39.8238L478.586 25.1897C466.074 13.5339 448.963 6.42078 430.209 6.42078V26.4208ZM479.895 38.3372C488.624 26.1732 503.574 17.9788 520.77 17.9788V-2.02124C497.173 -2.02124 476.156 9.24319 463.646 26.6763L479.895 38.3372ZM520.77 17.9788C547.404 17.9788 568.271 37.4446 569.776 60.8476L589.734 59.5646C587.492 24.6878 556.975 -2.02124 520.77 -2.02124V17.9788ZM581.353 70.0775C584.104 69.6321 586.94 69.3988 589.842 69.3988V49.3988C585.866 49.3988 581.961 49.7186 578.157 50.3347L581.353 70.0775ZM589.842 69.3988C617.532 69.3988 638.936 90.3918 638.936 115.04H658.936C658.936 78.2286 627.426 49.3988 589.842 49.3988V69.3988ZM638.936 115.04C638.936 139.688 617.532 160.681 589.842 160.681V180.681C627.426 180.681 658.936 151.851 658.936 115.04H638.936ZM589.842 160.681C587.159 160.681 584.533 160.482 581.979 160.1L579.022 179.88C582.553 180.408 586.167 180.681 589.842 180.681V160.681ZM571.108 166.557C564.629 184.286 546.489 197.519 524.607 197.519V217.519C554.531 217.519 580.411 199.369 589.893 173.422L571.108 166.557ZM524.607 197.519C518.596 197.519 512.863 196.518 507.575 194.698L501.067 213.61C508.433 216.145 516.364 217.519 524.607 217.519V197.519ZM495.396 199.644C487.648 214.974 470.812 225.915 450.931 225.915V245.915C478.168 245.915 502.011 230.895 513.246 208.665L495.396 199.644ZM450.931 225.915C437.26 225.915 424.997 220.735 416.155 212.484L402.51 227.106C415.026 238.786 432.155 245.915 450.931 245.915V225.915ZM401.625 213.423C392.713 224.204 378.659 231.288 362.672 231.288V251.288C384.62 251.288 404.326 241.545 417.04 226.166L401.625 213.423ZM362.672 231.288C338.232 231.288 318.559 214.833 314.404 194.037L294.792 197.956C300.94 228.728 329.351 251.288 362.672 251.288V231.288Z" fill="#1070CA" mask="url(#path-58-inside-1)"/>
<path d="M130.638 131.206C130.638 136.278 126.526 140.39 121.454 140.39C116.382 140.39 112.27 136.278 112.27 131.206C112.27 126.133 116.382 122.021 121.454 122.021C126.526 122.021 130.638 126.133 130.638 131.206Z" fill="#1070CA" stroke="#1070CA" stroke-width="10"/>
<path d="M174.078 103.28C174.078 112.514 166.592 120 157.358 120C148.124 120 140.638 112.514 140.638 103.28C140.638 94.046 148.124 86.5603 157.358 86.5603C166.592 86.5603 174.078 94.046 174.078 103.28Z" fill="#1070CA" stroke="#1070CA" stroke-width="10"/>
<path d="M238.794 84.2199C238.794 97.1261 228.332 107.589 215.426 107.589C202.519 107.589 192.057 97.1261 192.057 84.2199C192.057 71.3136 202.519 60.8511 215.426 60.8511C228.332 60.8511 238.794 71.3136 238.794 84.2199Z" fill="#1070CA" stroke="#1070CA" stroke-width="10"/>
<g clip-path="url(#clip1)">
<ellipse cx="275.098" cy="145.098" rx="26.0979" ry="26.0979" fill="#C4C4C4"/>
<path d="M257.099 127.819L260.378 164.914L275.098 169.036L289.813 164.917L293.096 127.819H257.099Z" fill="#2196F3"/>
<path d="M286.033 139.921L285.621 144.576L284.377 158.533L275.098 161.114L275.09 161.117L265.816 158.533L265.168 151.234H269.712L270.05 155.02L275.093 156.389L275.095 156.386L280.146 155.017L280.834 148.71L264.951 148.753L264.501 144.44L281.215 144.242L281.553 139.625L264.053 139.674L263.759 135.379H275.098H286.437L286.033 139.921Z" fill="#FAFAFA"/>
</g>
<g clip-path="url(#clip2)">
<ellipse cx="595.273" cy="116.702" rx="28.7837" ry="28.7837" fill="#C4C4C4"/>
<path d="M595.686 141.952C609.688 141.952 621.04 130.716 621.04 116.856C621.04 102.996 609.688 91.7603 595.686 91.7603C581.683 91.7603 570.331 102.996 570.331 116.856C570.331 130.716 581.683 141.952 595.686 141.952Z" fill="#F0DB4F"/>
<path d="M587.775 107.119H592.187V119.416C592.187 124.937 589.499 126.894 585.239 126.894C584.175 126.894 582.856 126.744 581.994 126.443L582.501 122.879C583.11 123.08 583.921 123.23 584.783 123.23C586.659 123.23 587.826 122.377 587.826 119.416L587.775 107.119Z" fill="#323330"/>
<path d="M596.091 122.076C597.257 122.678 599.134 123.281 601.01 123.281C603.038 123.281 604.103 122.428 604.103 121.123C604.103 119.918 603.19 119.215 600.807 118.412C597.562 117.258 595.381 115.451 595.381 112.59C595.381 109.327 598.221 106.818 602.835 106.818C605.067 106.818 606.689 107.27 607.856 107.822L606.841 111.335C606.081 110.984 604.661 110.432 602.785 110.432C600.858 110.432 599.945 111.335 599.945 112.289C599.945 113.544 601.01 114.096 603.596 115.049C607.044 116.304 608.667 118.111 608.667 120.872C608.667 124.134 606.182 126.895 600.756 126.895C598.525 126.895 596.294 126.292 595.178 125.69L596.091 122.076Z" fill="#323330"/>
</g>
<g clip-path="url(#clip3)">
<ellipse cx="430.379" cy="66.0179" rx="28.7837" ry="28.7837" fill="#C4C4C4"/>
<path d="M452.971 64.3105C452.969 64.3105 452.969 64.3096 452.969 64.3096L432.131 43.4572C431.006 42.3303 429.039 42.3313 427.919 43.4563L407.076 64.3105C406.516 64.874 406.206 65.6217 406.206 66.4159C406.206 67.2111 406.516 67.9597 407.078 68.5221L427.917 89.3745C428.479 89.9379 429.227 90.2483 430.024 90.2483C430.82 90.2483 431.568 89.9379 432.129 89.3755L452.969 68.5221C453.531 67.9597 453.842 67.2111 453.842 66.4159C453.842 65.6217 453.531 64.874 452.971 64.3105Z" fill="#EF473B"/>
<path opacity="0.1" d="M453.208 67.7997L432.151 88.8703C431.585 89.4386 430.829 89.7522 430.024 89.7522C429.219 89.7522 428.463 89.4386 427.895 88.8693L406.839 67.7997C406.593 67.5535 406.405 67.2671 406.259 66.9617C406.367 67.5491 406.647 68.0909 407.078 68.5223L427.917 89.3746C428.479 89.938 429.227 90.2484 430.024 90.2484C430.82 90.2484 431.569 89.938 432.129 89.3756L452.969 68.5223C453.401 68.0909 453.68 67.5491 453.788 66.9617C453.643 67.2671 453.454 67.5535 453.208 67.7997Z" fill="#010101"/>
<path d="M439.948 62.4604C439.204 62.4604 438.515 62.6789 437.919 63.0366L433.417 58.5349C433.775 57.9391 433.993 57.2501 433.993 56.5059C433.993 54.3166 432.212 52.5363 430.024 52.5363C429.29 52.5363 428.61 52.7502 428.019 53.0991L423.149 48.2283L421.746 49.632L426.616 54.5027C426.268 55.0929 426.054 55.7722 426.054 56.5059C426.054 58.3505 427.324 59.8908 429.031 60.3346V72.5256C427.324 72.9694 426.054 74.5097 426.054 76.3543C426.054 78.5436 427.835 80.3239 430.024 80.3239C432.212 80.3239 433.993 78.5436 433.993 76.3543C433.993 74.5097 432.723 72.9694 431.016 72.5256V60.3346C431.367 60.2434 431.696 60.1047 432.002 59.9267L436.527 64.4514C436.187 65.0363 435.978 65.7063 435.978 66.4301C435.978 68.6194 437.759 70.3998 439.948 70.3998C442.136 70.3998 443.917 68.6194 443.917 66.4301C443.917 64.2408 442.136 62.4604 439.948 62.4604Z" fill="white"/>
<path opacity="0.2" d="M407.076 64.8068L427.919 43.9525C429.039 42.8275 431.006 42.8265 432.131 43.9534L452.969 64.8058C452.969 64.8058 452.969 64.8068 452.971 64.8068C453.472 65.3105 453.759 65.9644 453.817 66.6641C453.824 66.581 453.842 66.5002 453.842 66.4159C453.842 65.6217 453.531 64.874 452.971 64.3105C452.969 64.3105 452.969 64.3096 452.969 64.3096L432.131 43.4572C431.006 42.3303 429.039 42.3313 427.919 43.4563L407.076 64.3105C406.516 64.874 406.206 65.6217 406.206 66.4159C406.206 66.5001 406.223 66.5809 406.23 66.6639C406.288 65.9642 406.575 65.3103 407.076 64.8068Z" fill="white"/>
<path d="M443.022 63.95C443.573 64.6317 443.917 65.4872 443.917 66.4303C443.917 68.6196 442.136 70.4 439.948 70.4C437.759 70.4 435.978 68.6196 435.978 66.4303C435.978 65.7065 436.187 65.0366 436.527 64.4517L432.002 59.9269C431.696 60.1049 431.367 60.2436 431.016 60.3348V72.5258C432.723 72.9696 433.993 74.5099 433.993 76.3545C433.993 78.5438 432.212 80.3241 430.024 80.3241C429.008 80.3241 428.091 79.9298 427.388 79.3005L434.795 86.7075L450.283 71.2106L443.022 63.95ZM433.417 58.5351L437.919 63.0368C438.515 62.6791 439.204 62.4607 439.948 62.4607C440.891 62.4607 441.747 62.8051 442.429 63.3565L433.144 54.072L433.139 54.076C433.666 54.7497 433.993 55.5864 433.993 56.5062C433.993 57.2504 433.775 57.9393 433.417 58.5351Z" fill="url(#paint0_linear)"/>
<path d="M452.971 64.3105C452.969 64.3105 452.969 64.3096 452.969 64.3096L432.131 43.4572C431.006 42.3303 429.039 42.3313 427.919 43.4563L407.076 64.3105C406.516 64.874 406.206 65.6217 406.206 66.4159C406.206 67.2111 406.516 67.9597 407.078 68.5221L427.917 89.3745C428.479 89.9379 429.227 90.2483 430.024 90.2483C430.82 90.2483 431.568 89.9379 432.129 89.3755L452.969 68.5221C453.531 67.9597 453.842 67.2111 453.842 66.4159C453.842 65.6217 453.531 64.874 452.971 64.3105Z" fill="url(#paint1_linear)"/>
</g>
<g clip-path="url(#clip4)">
<ellipse cx="393.589" cy="132.064" rx="28.3409" ry="28.3409" fill="#C4C4C4"/>
<path fill-rule="evenodd" clip-rule="evenodd" d="M379.369 151.383H409.377C411.745 151.383 413.664 149.464 413.664 147.096V117.088C413.664 114.721 411.745 112.802 409.377 112.802H379.369C377.002 112.802 375.083 114.721 375.083 117.088V147.096C375.083 149.464 377.002 151.383 379.369 151.383Z" fill="#3E75C3"/>
<path fill-rule="evenodd" clip-rule="evenodd" d="M394.373 119.232C387.271 119.232 381.513 125.012 381.513 132.144C381.513 137.848 385.197 142.687 390.309 144.395C390.952 144.513 391.186 144.115 391.186 143.773C391.186 143.466 391.175 142.654 391.169 141.577C387.591 142.357 386.836 139.846 386.836 139.846C386.252 138.355 385.409 137.958 385.409 137.958C384.241 137.156 385.497 137.172 385.497 137.172C386.787 137.264 387.466 138.503 387.466 138.503C388.614 140.476 390.477 139.906 391.21 139.576C391.326 138.741 391.659 138.172 392.026 137.85C389.17 137.523 386.168 136.416 386.168 131.469C386.168 130.059 386.669 128.907 387.492 128.004C387.36 127.677 386.918 126.365 387.618 124.587C387.618 124.587 388.698 124.24 391.154 125.91C392.181 125.624 393.28 125.481 394.374 125.475C395.466 125.481 396.567 125.624 397.594 125.91C400.049 124.24 401.127 124.587 401.127 124.587C401.828 126.365 401.387 127.677 401.255 128.004C402.079 128.907 402.577 130.059 402.577 131.469C402.577 136.428 399.57 137.52 396.705 137.84C397.166 138.238 397.578 139.026 397.578 140.231C397.578 141.957 397.562 143.349 397.562 143.773C397.562 144.118 397.793 144.52 398.446 144.393C403.553 142.682 407.234 137.846 407.234 132.144C407.234 125.012 401.476 119.232 394.373 119.232Z" fill="white"/>
</g>
<g clip-path="url(#clip5)">
<circle cx="525.238" cy="154.67" r="28.7837" fill="#C4C4C4"/>
<path d="M541.947 155.953C541.945 154.873 541.563 153.824 540.862 152.97C540.161 152.116 539.18 151.505 538.071 151.231L543.045 137.411H518.396L523.384 151.275C522.307 151.571 521.361 152.187 520.687 153.033C520.014 153.878 519.649 154.906 519.648 155.962C519.648 157.598 520.514 159.048 521.834 159.94C521.303 160.646 520.698 161.3 520.029 161.892C518.799 162.996 517.359 163.873 515.784 164.475C514.396 163.592 513.795 162.035 514.338 160.638C515.519 160.293 516.529 159.56 517.187 158.573C517.844 157.586 518.105 156.41 517.922 155.257C517.739 154.105 517.124 153.052 516.189 152.29C515.253 151.527 514.059 151.106 512.823 151.101C511.449 151.103 510.132 151.618 509.16 152.533C508.189 153.449 507.642 154.69 507.641 155.984C507.641 157.314 508.218 158.535 509.144 159.407C509.064 159.559 508.982 159.713 508.901 159.876C508.127 161.38 507.248 163.081 506.911 164.988C506.241 168.803 507.339 171.865 509.989 173.599C511.424 174.552 513.137 175.062 514.892 175.059C517.933 175.059 521.021 173.621 524.006 172.225C526.135 171.233 528.333 170.198 530.495 169.696C531.294 169.511 532.127 169.403 533.005 169.282C534.787 169.042 536.626 168.792 538.279 167.886C539.223 167.376 540.038 166.678 540.665 165.84C541.292 165.003 541.718 164.046 541.912 163.037C542.201 161.478 541.912 159.909 541.172 158.535C541.669 157.782 541.947 156.9 541.947 155.951V155.953ZM539.691 155.953C539.691 157.467 538.384 158.698 536.778 158.698C536.173 158.696 535.583 158.518 535.091 158.187C534.598 157.856 534.227 157.388 534.029 156.85C533.831 156.311 533.815 155.728 533.984 155.181C534.152 154.633 534.498 154.149 534.972 153.794L534.983 153.783C535.076 153.718 535.18 153.652 535.283 153.587C535.283 153.587 535.296 153.587 535.296 153.576C535.343 153.554 535.388 153.521 535.434 153.498C535.446 153.498 535.458 153.489 535.469 153.489C535.516 153.467 535.574 153.445 535.631 153.423C535.689 153.401 535.747 153.38 535.794 153.358C535.806 153.358 535.816 153.347 535.827 153.347C535.874 153.336 535.92 153.314 535.967 153.303C535.979 153.303 536 153.292 536.014 153.292C536.07 153.281 536.117 153.27 536.175 153.261H536.187L536.36 153.227C536.372 153.227 536.393 153.227 536.406 153.216C536.453 153.216 536.498 153.205 536.545 153.205H536.603C536.661 153.205 536.719 153.194 536.788 153.194H536.938C536.984 153.194 537.021 153.194 537.066 153.205H537.089C537.181 153.216 537.274 153.227 537.367 153.249C538.024 153.381 538.612 153.722 539.035 154.213C539.458 154.705 539.689 155.318 539.691 155.951V155.953ZM521.624 139.592H539.819L535.642 151.2C535.469 151.231 535.296 151.286 535.123 151.341L530.728 142.894L526.32 151.286C526.147 151.233 525.961 151.2 525.776 151.167L521.624 139.59V139.592ZM529.894 155.004C529.681 153.998 529.135 153.081 528.333 152.387L530.727 147.832L533.144 152.486C532.428 153.161 531.907 154.023 531.699 155.004H529.893H529.894ZM524.099 153.281C524.156 153.27 524.203 153.26 524.261 153.25H524.294C524.342 153.238 524.387 153.238 524.434 153.227H524.481C524.527 153.227 524.562 153.216 524.607 153.216H525.058C525.105 153.216 525.14 153.227 525.175 153.227C525.198 153.227 525.208 153.227 525.233 153.238C525.278 153.249 525.313 153.249 525.36 153.26C525.371 153.26 525.383 153.26 525.406 153.27L525.568 153.302H525.579C525.626 153.314 525.673 153.325 525.717 153.347C525.729 153.347 525.741 153.358 525.764 153.358C525.799 153.369 525.846 153.38 525.881 153.401C525.892 153.401 525.904 153.412 525.914 153.412C525.961 153.434 526.007 153.445 526.054 153.467H526.065C526.119 153.486 526.169 153.511 526.215 153.543H526.227C526.273 153.565 526.32 153.597 526.367 153.619C526.378 153.619 526.378 153.63 526.388 153.63C526.435 153.652 526.472 153.685 526.517 153.707L526.528 153.718C526.666 153.815 526.795 153.925 526.921 154.033L526.933 154.044C527.448 154.556 527.734 155.235 527.732 155.94C527.706 156.653 527.388 157.328 526.844 157.823C526.3 158.319 525.573 158.596 524.817 158.596C524.06 158.596 523.334 158.319 522.79 157.823C522.246 157.328 521.928 156.653 521.902 155.94C521.9 155.329 522.116 154.736 522.514 154.254C522.912 153.772 523.47 153.429 524.099 153.281ZM512.716 153.205C514.324 153.205 515.631 154.438 515.631 155.951C515.631 157.465 514.324 158.698 512.718 158.698C511.111 158.698 509.801 157.467 509.801 155.953C509.801 154.439 511.11 153.205 512.716 153.205ZM539.623 162.656C539.491 163.353 539.198 164.015 538.764 164.593C538.33 165.171 537.766 165.652 537.112 166.002C535.85 166.689 534.301 166.907 532.669 167.125C531.752 167.236 530.841 167.388 529.939 167.581C527.534 168.138 525.221 169.228 522.977 170.275C520.107 171.614 517.401 172.879 514.892 172.879C513.605 172.886 512.35 172.508 511.306 171.799C508.761 170.143 508.887 167.037 509.189 165.337C509.467 163.744 510.241 162.253 510.982 160.824C511.028 160.737 511.063 160.66 511.11 160.573C511.363 160.66 511.629 160.726 511.907 160.77C511.468 163.081 512.716 165.467 515.147 166.645L515.586 166.863L516.059 166.7C518.083 166.024 519.958 164.922 521.612 163.451C522.526 162.648 523.334 161.744 524.018 160.759C524.284 160.802 524.551 160.813 524.817 160.813C525.962 160.81 527.074 160.451 527.98 159.79C528.886 159.13 529.534 158.206 529.824 157.162H531.767C532.055 158.208 532.704 159.133 533.611 159.794C534.517 160.455 535.631 160.813 536.778 160.813C537.737 160.813 538.626 160.562 539.391 160.138C539.691 160.954 539.784 161.806 539.623 162.656Z" fill="#C63D14"/>
</g>
<g clip-path="url(#clip6)">
<ellipse cx="525.238" cy="62.6246" rx="28.7837" ry="28.7837" fill="#C4C4C4"/>
<path d="M524.882 36.9141C510.462 36.9141 498.759 48.445 498.759 62.6528C498.759 76.8606 510.462 88.3916 524.882 88.3916C539.302 88.3916 551.005 76.8606 551.005 62.6528C551.005 48.445 539.302 36.9141 524.882 36.9141Z" fill="#46483E"/>
<path d="M525.036 79.02C524.565 79.02 524.146 78.9165 523.728 78.6576L519.647 76.2758C519.02 75.9134 519.334 75.8098 519.543 75.758C520.38 75.4474 520.537 75.3956 521.374 74.9296C521.478 74.8778 521.583 74.8778 521.688 74.9814L524.826 76.8453C524.931 76.8971 525.088 76.8971 525.192 76.8453L537.433 69.8554C537.538 69.8036 537.643 69.6483 537.643 69.5447V55.5647C537.643 55.4094 537.59 55.3058 537.433 55.2541L525.245 48.2123C525.14 48.1605 524.983 48.1605 524.879 48.2123L512.638 55.1505C512.533 55.2023 512.428 55.3576 512.428 55.4612V69.4411C512.428 69.5447 512.481 69.7 512.638 69.7518L515.986 71.6676C517.817 72.5478 518.915 71.5123 518.915 70.4249V56.7038C518.915 56.4967 519.072 56.3414 519.281 56.3414H520.851C521.06 56.3414 521.217 56.4967 521.217 56.7038V70.4767C521.217 72.9102 519.909 74.2565 517.607 74.2565C516.875 74.2565 516.352 74.2565 514.782 73.4798L511.591 71.6676C510.807 71.2016 510.284 70.3731 510.284 69.4411V55.4612C510.284 54.581 510.754 53.7007 511.591 53.2347L523.832 46.2447C524.617 45.8305 525.663 45.8305 526.396 46.2447L538.637 53.2347C539.421 53.7007 539.944 54.5292 539.944 55.4612V69.4411C539.944 70.3214 539.473 71.2016 538.637 71.6676L526.343 78.7093C525.925 78.9165 525.506 79.02 525.036 79.02Z" fill="#81CF08"/>
<path d="M528.854 69.3894C523.519 69.3894 522.368 66.9559 522.368 64.9365C522.368 64.7294 522.525 64.5741 522.734 64.5741H524.303C524.46 64.5741 524.617 64.6777 524.669 64.8848C524.879 66.4899 525.611 67.2665 528.854 67.2665C531.418 67.2665 532.516 66.697 532.516 65.3508C532.516 64.5741 532.202 64.0045 528.174 63.5903C524.826 63.2797 522.734 62.5548 522.734 59.8623C522.734 57.4288 524.826 55.979 528.331 55.979C532.255 55.979 534.19 57.3252 534.452 60.2248C534.452 60.3283 534.399 60.4319 534.347 60.4837C534.295 60.5354 534.19 60.5872 534.085 60.5872H532.516C532.359 60.5872 532.202 60.4837 532.15 60.3283C531.784 58.6714 530.842 58.1019 528.331 58.1019C525.506 58.1019 525.192 59.0857 525.192 59.8106C525.192 60.6908 525.559 60.9497 529.377 61.4674C533.144 61.9334 534.922 62.6583 534.922 65.2472C534.922 67.8879 532.725 69.3894 528.854 69.3894Z" fill="#81CF08"/>
</g>
<g clip-path="url(#clip7)">
<ellipse cx="336.784" cy="79.3409" rx="28.7837" ry="28.3409" fill="#C4C4C4"/>
<path d="M362.551 79.3689C362.551 81.6611 362.242 83.883 361.662 85.9953C360.307 90.9345 357.473 95.2759 353.657 98.5311C349.142 102.382 343.254 104.712 336.812 104.712C322.597 104.712 311.073 93.3654 311.073 79.3689C311.073 65.3725 322.597 54.0261 336.812 54.0261C351.027 54.0261 362.551 65.3725 362.551 79.3689Z" fill="#0078CF"/>
<path d="M361.662 85.995C360.307 90.9343 357.474 95.2756 353.657 98.5308C353.284 98.5505 352.894 98.5599 352.49 98.5599C347.145 98.5599 344.176 95.2715 342.699 92.8045L347.545 89.9382C347.545 89.9382 349.193 93.3869 352.283 93.3869C355.374 93.3869 356.61 92.3722 356.61 90.0395C356.61 87.1991 346.617 86.1853 345.072 81.3165C343.526 76.4476 345.586 69.5491 352.799 70.057C357.305 70.3735 359.84 72.553 361.108 74.1429L356.301 77.5626C355.27 74.6218 351.047 74.6218 350.222 77.0557C349.399 79.4907 352.18 80.9099 356.507 82.3301C358.73 83.0594 360.518 84.4051 361.662 85.995Z" fill="#F2F2F2"/>
<path d="M341.331 70.8337H319.429V75.9237H327.455V98.0242H333.305V75.9237H341.331V70.8337Z" fill="#F2F2F2"/>
</g>
<g clip-path="url(#clip8)">
<ellipse cx="455.696" cy="189.098" rx="25.6964" ry="26.0979" fill="#C4C4C4"/>
<path d="M437.979 172.632L440.601 206.555C440.64 207.065 440.981 207.499 441.463 207.654L455.262 212.077C455.506 212.156 455.768 212.156 456.012 212.077L469.811 207.654C470.293 207.499 470.634 207.065 470.673 206.555L473.296 172.632C473.352 171.902 472.782 171.279 472.059 171.279H439.216C438.492 171.279 437.922 171.902 437.979 172.632ZM466.571 183.157H449.48L449.996 187.967H466.199L465.139 201.677L455.637 204.724L446.135 201.677L445.582 194.514H450.569V198.028L455.77 199.439L460.941 198.028L461.342 192.428H445.42L444.363 178.753H466.911L466.571 183.157Z" fill="#FC490B"/>
</g>
<g clip-path="url(#clip9)">
<ellipse cx="360.318" cy="193.651" rx="26.0979" ry="26.0979" fill="#C4C4C4"/>
<path d="M384.616 193.471C384.616 201.417 380.773 208.466 374.844 212.86C372.363 214.699 369.516 216.073 366.433 216.853C364.534 217.334 362.546 217.589 360.498 217.589C358.449 217.589 356.461 217.334 354.562 216.853C351.479 216.073 348.632 214.699 346.15 212.859C340.222 208.465 336.38 201.417 336.38 193.471C336.38 180.151 347.178 169.353 360.498 169.353C373.818 169.353 384.616 180.151 384.616 193.471Z" fill="#5ADAFD"/>
<path d="M374.869 207.051C374.756 206.292 374.606 205.51 374.421 204.711C374.258 204.009 374.068 203.293 373.852 202.567C373.285 200.659 372.538 198.677 371.633 196.672C371.236 195.796 370.809 194.916 370.353 194.037C369.951 193.262 369.528 192.487 369.082 191.716C368.637 190.944 368.178 190.19 367.707 189.455C367.174 188.621 366.626 187.812 366.065 187.03C364.783 185.243 363.439 183.604 362.07 182.159C361.549 181.609 361.025 181.087 360.498 180.596C359.898 180.035 359.296 179.514 358.694 179.037C354.768 175.919 351.252 174.983 348.794 176.401C346.336 177.821 345.389 181.333 346.125 186.294C346.238 187.053 346.388 187.834 346.574 188.634C346.736 189.335 346.926 190.051 347.142 190.778C347.709 192.685 348.457 194.669 349.363 196.672C349.759 197.548 350.186 198.427 350.642 199.307C351.044 200.082 351.468 200.857 351.913 201.629C352.358 202.4 352.817 203.155 353.288 203.89C353.822 204.725 354.37 205.534 354.93 206.315C356.212 208.102 357.555 209.74 358.925 211.185C359.446 211.736 359.971 212.258 360.498 212.749C361.097 213.311 361.7 213.83 362.3 214.308C363.744 215.455 365.133 216.306 366.433 216.853C369.516 216.073 372.363 214.699 374.845 212.86C375.191 211.263 375.204 209.307 374.869 207.051ZM372.658 212.502C372.372 213.74 371.845 214.589 371.092 215.023C370.34 215.458 369.342 215.489 368.126 215.119C366.809 214.717 365.271 213.836 363.678 212.572C363.143 212.146 362.606 211.684 362.07 211.186C361.544 210.698 361.018 210.176 360.497 209.624C359.601 208.676 358.715 207.639 357.851 206.525C357.274 205.782 356.706 205.005 356.152 204.199C355.347 203.031 354.571 201.8 353.832 200.52C353.093 199.241 352.416 197.953 351.806 196.672C351.385 195.789 350.996 194.909 350.642 194.038C350.109 192.733 349.654 191.446 349.28 190.197C349.064 189.468 348.874 188.754 348.715 188.054C348.552 187.341 348.419 186.644 348.319 185.968C348.019 183.957 348.026 182.185 348.336 180.843C348.623 179.605 349.15 178.756 349.903 178.322C350.309 178.088 350.786 177.97 351.331 177.97C351.795 177.97 352.309 178.055 352.868 178.227C354.186 178.628 355.723 179.509 357.316 180.773C357.851 181.198 358.389 181.661 358.925 182.16C359.451 182.648 359.976 183.169 360.497 183.721C361.393 184.669 362.279 185.706 363.145 186.821C363.722 187.564 364.29 188.34 364.844 189.147C365.647 190.315 366.424 191.546 367.162 192.824C367.901 194.104 368.579 195.392 369.188 196.672C369.609 197.556 369.998 198.437 370.353 199.308C370.885 200.613 371.341 201.899 371.714 203.148C371.931 203.876 372.121 204.591 372.28 205.291C372.442 206.004 372.575 206.701 372.676 207.377C372.975 209.388 372.968 211.16 372.658 212.502Z" fill="#F2F2F2"/>
<path d="M376.672 189.416C375.958 189.135 375.206 188.874 374.42 188.634C373.731 188.424 373.017 188.23 372.279 188.054C370.344 187.591 368.253 187.247 366.065 187.03C365.109 186.935 364.133 186.865 363.145 186.82C362.273 186.78 361.389 186.759 360.498 186.759C359.607 186.759 358.723 186.78 357.85 186.82C356.86 186.865 355.885 186.936 354.929 187.03C352.741 187.247 350.651 187.591 348.715 188.054C347.978 188.23 347.263 188.424 346.574 188.634C345.789 188.873 345.037 189.135 344.323 189.416C339.66 191.257 337.09 193.834 337.09 196.672C337.09 199.51 339.66 202.088 344.323 203.929C345.037 204.211 345.788 204.472 346.573 204.712C347.262 204.922 347.977 205.116 348.714 205.291C350.65 205.754 352.741 206.098 354.93 206.316C355.886 206.41 356.861 206.48 357.851 206.525C358.723 206.566 359.607 206.585 360.498 206.585C361.389 206.585 362.272 206.566 363.144 206.525C364.133 206.48 365.108 206.41 366.065 206.316C368.253 206.099 370.345 205.754 372.28 205.291C373.018 205.115 373.732 204.922 374.421 204.711C375.206 204.472 375.958 204.211 376.672 203.929C381.336 202.088 383.904 199.51 383.904 196.672C383.904 193.834 381.336 191.257 376.672 189.416ZM380.286 199.289C379.28 200.229 377.749 201.12 375.858 201.867C375.221 202.118 374.551 202.352 373.852 202.567C373.166 202.779 372.452 202.972 371.714 203.148C370.445 203.45 369.103 203.698 367.707 203.89C366.775 204.019 365.819 204.122 364.844 204.198C363.429 204.311 361.975 204.368 360.498 204.368C359.02 204.368 357.566 204.311 356.152 204.199C355.176 204.122 354.219 204.019 353.288 203.89C351.891 203.698 350.549 203.45 349.28 203.148C348.542 202.973 347.828 202.779 347.142 202.567C346.443 202.352 345.774 202.118 345.137 201.867C343.246 201.12 341.714 200.229 340.708 199.289C339.779 198.422 339.307 197.542 339.307 196.672C339.307 195.803 339.779 194.923 340.708 194.056C341.714 193.116 343.246 192.225 345.137 191.478C345.774 191.227 346.443 190.992 347.142 190.778C347.828 190.566 348.542 190.372 349.28 190.197C350.549 189.895 351.891 189.647 353.288 189.455C354.219 189.326 355.176 189.222 356.152 189.146C357.566 189.033 359.02 188.976 360.498 188.976C361.975 188.976 363.429 189.033 364.844 189.147C365.819 189.222 366.775 189.326 367.707 189.455C369.103 189.647 370.445 189.895 371.714 190.197C372.452 190.372 373.166 190.566 373.852 190.778C374.551 190.992 375.221 191.227 375.858 191.478C377.749 192.225 379.28 193.116 380.286 194.056C381.216 194.923 381.687 195.803 381.687 196.672C381.687 197.542 381.216 198.422 380.286 199.289Z" fill="#F2F2F2"/>
<path d="M372.2 176.401C369.742 174.983 366.227 175.919 362.3 179.037C361.7 179.514 361.097 180.035 360.498 180.596C359.971 181.087 359.446 181.61 358.925 182.16C357.555 183.605 356.212 185.243 354.929 187.03C354.369 187.812 353.821 188.621 353.288 189.455C352.817 190.19 352.358 190.944 351.913 191.716C351.468 192.488 351.044 193.262 350.642 194.038C350.186 194.917 349.759 195.797 349.363 196.672C348.457 198.676 347.71 200.659 347.142 202.567C346.926 203.294 346.736 204.01 346.573 204.712C346.388 205.511 346.238 206.292 346.126 207.051C345.791 209.306 345.804 211.262 346.15 212.859C348.632 214.699 351.479 216.073 354.562 216.853C355.862 216.306 357.25 215.455 358.695 214.308C359.296 213.83 359.898 213.31 360.498 212.749C361.025 212.258 361.549 211.737 362.07 211.186C363.438 209.741 364.783 208.102 366.065 206.315C366.625 205.534 367.173 204.724 367.707 203.89C368.178 203.154 368.637 202.4 369.082 201.629C369.528 200.858 369.951 200.083 370.353 199.307C370.809 198.428 371.236 197.548 371.633 196.672C372.538 194.669 373.286 192.685 373.853 190.777C374.068 190.051 374.258 189.335 374.421 188.633C374.607 187.834 374.756 187.052 374.869 186.294C375.606 181.333 374.659 177.821 372.2 176.401ZM371.714 190.197C371.341 191.446 370.885 192.732 370.353 194.037C369.998 194.908 369.61 195.788 369.188 196.672C368.579 197.953 367.902 199.241 367.162 200.52C366.424 201.799 365.647 203.03 364.844 204.198C364.289 205.005 363.721 205.782 363.144 206.525C362.28 207.639 361.394 208.676 360.497 209.624C359.976 210.175 359.452 210.697 358.925 211.185C358.389 211.683 357.852 212.146 357.316 212.571C355.724 213.836 354.186 214.716 352.869 215.119C351.653 215.489 350.655 215.458 349.903 215.023C349.151 214.588 348.623 213.74 348.337 212.501C348.027 211.16 348.02 209.388 348.319 207.377C348.419 206.7 348.552 206.003 348.715 205.291C348.874 204.591 349.064 203.876 349.281 203.148C349.654 201.898 350.109 200.612 350.642 199.307C350.996 198.435 351.385 197.555 351.807 196.672C352.416 195.392 353.093 194.104 353.833 192.824C354.571 191.544 355.348 190.314 356.152 189.145C356.706 188.339 357.273 187.563 357.85 186.82C358.715 185.706 359.601 184.668 360.497 183.72C361.019 183.168 361.544 182.646 362.07 182.159C362.606 181.661 363.143 181.198 363.679 180.773C365.271 179.509 366.809 178.628 368.126 178.226C368.685 178.055 369.199 177.969 369.664 177.969C370.208 177.969 370.686 178.088 371.092 178.322C371.845 178.756 372.372 179.605 372.658 180.843C372.968 182.185 372.975 183.957 372.676 185.968C372.575 186.644 372.443 187.341 372.279 188.054C372.121 188.754 371.931 189.468 371.714 190.197Z" fill="#F2F2F2"/>
<path d="M360.498 201.072C362.928 201.072 364.897 199.102 364.897 196.672C364.897 194.243 362.928 192.273 360.498 192.273C358.068 192.273 356.099 194.243 356.099 196.672C356.099 199.102 358.068 201.072 360.498 201.072Z" fill="#F2F2F2"/>
</g>
</g>
<defs>
<linearGradient id="paint0_linear" x1="425.398" y1="61.8177" x2="442.541" y2="78.9614" gradientUnits="userSpaceOnUse">
<stop stop-color="#010101" stop-opacity="0.1"/>
<stop offset="1" stop-color="#010101" stop-opacity="0"/>
</linearGradient>
<linearGradient id="paint1_linear" x1="410.203" y1="57.1808" x2="449.839" y2="75.6635" gradientUnits="userSpaceOnUse">
<stop stop-color="white" stop-opacity="0.2"/>
<stop offset="1" stop-color="white" stop-opacity="0"/>
</linearGradient>
<clipPath id="clip0">
<rect width="654.255" height="250" fill="white"/>
</clipPath>
<clipPath id="clip1">
<rect width="52.1958" height="52.1957" fill="white" transform="translate(249 119)"/>
</clipPath>
<clipPath id="clip2">
<rect width="57.6241" height="57.6241" fill="white" transform="translate(566.489 87.9187)"/>
</clipPath>
<clipPath id="clip3">
<rect width="57.6241" height="57.6241" fill="white" transform="translate(401.596 37.2341)"/>
</clipPath>
<clipPath id="clip4">
<rect width="56.7376" height="56.7376" fill="white" transform="translate(365.248 103.723)"/>
</clipPath>
<clipPath id="clip5">
<rect width="57.6241" height="57.6241" fill="white" transform="translate(496.454 125.886)"/>
</clipPath>
<clipPath id="clip6">
<rect width="57.6241" height="57.6241" fill="white" transform="translate(496.454 33.8408)"/>
</clipPath>
<clipPath id="clip7">
<rect width="57.6241" height="56.7376" fill="white" transform="translate(308 51)"/>
</clipPath>
<clipPath id="clip8">
<rect width="51.3927" height="52.1958" fill="white" transform="translate(430 163)"/>
</clipPath>
<clipPath id="clip9">
<rect width="52.1958" height="52.1958" fill="white" transform="translate(334.22 167.553)"/>
</clipPath>
</defs>
</svg>
