<svg width="430" height="339" viewBox="0 0 430 339" fill="none" xmlns="http://www.w3.org/2000/svg">
<g clip-path="url(#clip0)">
<path fill-rule="evenodd" clip-rule="evenodd" d="M327.998 251.868C353.165 234.921 399.748 231.969 391.203 194.988C382.854 157.6 351.472 156.23 293.556 122.48C237.251 85.3919 251.454 59.4848 168.385 56C89.1489 56.0336 113.269 170.206 54.8934 152.576C-3.48225 134.945 62.1621 280.767 72.5448 291.56C90.8056 310.544 138.894 333.195 162.35 329.985C180.163 327.609 237.47 314.423 265.527 300.737C292.935 287.964 295.897 274.616 327.998 251.868Z" fill="#1070CA"/>
<path d="M175.72 279.081C176.509 281.151 203.459 284.397 218.229 293.128C223.893 296.476 228.181 310.964 227.903 311.238C221.207 317.842 217.569 321.208 213.964 323.236C201.293 330.366 191.527 328.513 182.072 327.021C170.706 325.228 163.953 312.75 168.384 302.39C169.079 300.767 170.828 298.395 173.725 295.059L174.11 294.62C174.099 294.501 174.1 294.379 174.115 294.255C174.247 293.137 174.264 291.99 174.164 290.813L173.939 288.703C173.675 286.344 173.163 282.341 172.402 280.346C172.053 279.43 172.512 278.404 173.428 278.055C174.344 277.705 175.37 278.165 175.72 279.081Z" fill="white"/>
<path d="M237.949 305.52C237.947 305.094 238.054 304.661 238.281 304.263C238.674 303.572 239.343 303.137 240.071 303.016C240.241 302.863 240.357 302.809 240.423 302.871L240.533 302.982C240.943 302.99 241.358 303.097 241.74 303.315L249.2 307.552C264.663 316.392 281.285 329.541 282.889 339.525C284.706 350.838 272.861 409.709 271.492 409.412C270.123 409.116 244.464 467.425 244.449 467.583C244.398 468.114 221.588 468.96 197.592 471.528C189.206 472.425 210.985 443.167 219.178 422.482C233.23 387.01 237.949 305.52 237.949 305.52Z" fill="white"/>
<path d="M259.321 283.745C259.14 285.189 259.751 290.493 257.711 292.942C256.903 293.913 254.971 294.608 253.711 293.996C253.154 293.725 254.891 291.305 255.946 288.569C256.354 287.512 255.638 286.235 255.946 285.225C256.216 284.341 257.523 283.705 257.711 283.041C258.012 281.985 259.44 282.792 259.321 283.745Z" fill="white"/>
<path d="M262.849 277.549C262.668 278.993 266.952 285.715 264.813 287.87C261.176 291.532 257.681 285.109 258.736 282.374C259.144 281.316 259.166 280.039 259.474 279.029C259.744 278.146 262.968 276.596 262.849 277.549Z" fill="white"/>
<path d="M172.789 290.915C174.19 290.906 175.334 292.033 175.344 293.434C175.345 293.581 175.334 293.724 175.311 293.864L175.529 293.724C176.746 292.972 178.252 292.592 177.93 294.432C177.481 296.999 171.055 299.984 171.055 304.923C171.055 312.254 173.882 319.271 184.051 322.205C212.531 330.419 226.597 315.858 231.862 309.578C231.86 309.152 231.967 308.719 232.194 308.321C232.587 307.63 233.257 307.195 233.984 307.074C234.154 306.921 234.27 306.867 234.336 306.929L234.446 307.04C234.856 307.048 235.271 307.155 235.653 307.373L243.113 311.61C258.576 320.451 275.198 333.599 276.802 343.583C278.619 354.896 266.774 413.767 265.405 413.47C264.036 413.174 238.377 471.483 238.362 471.641C238.294 472.358 196.778 473.647 166.833 478.97C147.196 482.46 134.417 489.005 134.003 489.375C132.96 490.31 131.747 491.928 130.813 490.884C124.54 483.878 122.868 464.187 125.291 435.207L124.022 435.078C98.0682 432.456 85.2654 425.156 86.1369 408.72C88.2748 368.396 99.6267 336.798 112.832 317.231C124.558 299.859 143.288 291.126 172.789 290.915Z" fill="white"/>
<path fill-rule="evenodd" clip-rule="evenodd" d="M231.862 309.578C231.86 309.152 231.967 308.719 232.193 308.322C232.587 307.63 233.256 307.195 233.984 307.074C234.154 306.921 234.27 306.867 234.336 306.93L234.446 307.04C234.856 307.048 235.271 307.155 235.653 307.373L243.112 311.61C258.576 320.451 275.198 333.599 276.802 343.583C278.619 354.896 266.774 413.767 265.405 413.47C264.036 413.174 238.377 471.483 238.362 471.641C238.311 472.172 215.501 473.018 191.505 475.586C183.118 476.484 204.898 447.225 213.091 426.541C227.143 391.068 231.862 309.578 231.862 309.578Z" fill="#E7EAEE"/>
<path d="M233.195 308.751C233.244 310.15 232.059 311.323 230.658 311.287C223.661 311.11 222.549 299.078 223.22 299.03C224.149 298.962 225.736 304.678 228.861 306.759C231.243 308.347 233.058 304.894 233.195 308.751Z" fill="white"/>
<path d="M169.778 276.61C170.746 275.451 172.554 276.479 173.186 277.728C173.818 278.978 173.317 280.504 172.068 281.136C165.689 284.363 157.197 283.165 151.965 278.687C142.876 270.908 142.504 250.718 142.504 244.692C142.504 243.888 152.874 244.837 157.176 250.464C164.805 260.444 168.531 278.104 169.778 276.61Z" fill="white"/>
<path d="M169.099 221.78L169.196 221.245C169.278 220.771 169.277 220.257 169.033 217.709L168.222 209.736C168.069 208.216 167.946 206.904 167.84 205.626L167.756 204.586C167.025 195.195 167.377 189.858 169.912 187.377C177.07 180.374 181.024 180.525 188.479 182.941L190.041 183.449C193.354 184.497 195.014 183.686 197.279 183.154L197.935 183.006C203.187 181.855 208.661 181.642 214.956 182.189C218.637 182.509 220.914 182.812 226.757 183.816L233.655 185.024C237.972 185.784 240.882 186.257 243.96 186.677L244.639 186.764C249.573 187.362 253.589 187.004 258.437 185.91C258.536 185.888 261.146 185.272 262.169 185.052L262.787 184.929C263.747 184.75 264.56 184.656 265.317 184.656L265.436 184.59C272.833 180.752 279.873 168.763 279.292 159.148C278.572 147.217 267.239 139.645 242.902 139.495L241.717 139.49C237.698 139.447 234.761 138.781 226.323 136.196L222.159 134.91C214.932 132.696 210.578 131.689 205.914 131.376C205.111 131.322 204.325 131.295 203.552 131.295C171.221 131.295 139.372 158.842 134.989 184.59C134.193 189.265 137.798 209.888 139.102 220.141C139.102 220.141 151.661 220.279 157.776 221.161C158.359 221.245 163.316 232.05 166.319 232.05C169.033 232.05 169.099 221.78 169.099 221.78Z" fill="white"/>
<path d="M187.693 187.006C192.199 188.488 194.674 188.909 198.082 188.173L199.334 187.89C207.415 186.124 213.602 186.657 230.89 189.688L235.036 190.414C238.239 190.964 240.693 191.351 243.275 191.703C248.964 192.479 253.56 192.153 258.884 191.006L264.317 189.79C265.253 189.595 265.138 189.669 265.476 189.723L265.632 189.742C266.344 189.808 268.758 190.171 269.325 191.81C272.819 201.903 273.833 225.991 270.123 245.821C265.087 272.747 250.635 291.204 229.981 296.811C198.508 305.355 174.846 289.121 158.466 247.196L157.962 245.906L156.604 245.632L155.635 245.431C140.044 242.09 134.778 236.098 140.048 226.343C142.688 221.457 146.304 219.943 149.318 220.965C152.985 222.209 157.605 227.003 162.884 235.375L162.943 235.464C165.259 238.814 168.472 237.53 170.105 233.974C171.123 231.755 172.091 228.043 173.067 222.735L173.263 221.65C173.428 220.634 173.351 219.822 172.501 211.619L172.2 208.681C172.092 207.596 172.001 206.618 171.92 205.674L171.88 205.204C171.547 201.208 171.424 198.025 171.549 195.522C171.677 192.98 172.085 191.355 172.445 191.003L173.048 190.422C178.284 185.465 181.252 184.969 186.609 186.654L187.693 187.006Z" fill="white"/>
<path fill-rule="evenodd" clip-rule="evenodd" d="M270.123 245.821C265.087 272.747 250.635 291.205 229.981 296.811C223.971 298.443 241.379 291.991 250.549 280.393C263.123 264.49 270.197 240.938 271.362 233.806C274.888 212.228 273.833 225.991 270.123 245.821Z" fill="#E7EAEE"/>
<path fill-rule="evenodd" clip-rule="evenodd" d="M170.105 233.974C171.123 231.755 172.091 228.043 173.067 222.735L173.263 221.65C173.428 220.634 173.351 219.822 172.501 211.619L172.2 208.681C172.092 207.596 172.001 206.618 171.92 205.674L171.88 205.204C171.547 201.208 171.424 198.025 171.549 195.522C171.677 192.98 172.085 191.355 172.445 191.003L173.048 190.422C178.284 185.465 181.252 184.969 186.609 186.654L187.693 187.006C192.199 188.488 194.674 188.909 198.082 188.173L199.334 187.89C207.415 186.124 213.602 186.657 230.89 189.688L235.036 190.414C238.239 190.964 240.693 191.351 243.275 191.703C248.964 192.479 253.56 192.153 258.884 191.006L264.317 189.79C265.253 189.595 265.138 189.669 265.476 189.723L265.632 189.742C266.344 189.808 268.758 190.171 269.325 191.81C269.325 191.81 267.125 193.593 265.476 193.714C251.105 194.772 240.656 197.28 229.548 198.343C212.034 200.02 196.37 200.595 187.693 205.204C183.5 207.431 179.048 230.393 173.46 238.176C170.294 242.585 170.105 233.974 170.105 233.974Z" fill="#E7EAEE"/>
<path fill-rule="evenodd" clip-rule="evenodd" d="M210.756 261.409C211.22 262.058 211.795 262.656 212.472 263.178C213.188 263.736 214.019 264.084 214.848 264.329C216.465 264.761 218.062 265.195 219.712 265.464C224.795 266.293 237.53 267.685 238.782 267.918C239.626 268.165 240.511 267.678 240.756 266.832C241 265.986 240.512 265.1 239.668 264.853C238.395 264.343 237.136 263.862 235.821 263.524C233.874 263.022 231.874 262.787 229.882 262.557C226.486 262.153 223.078 261.817 219.665 261.606C218.215 261.521 216.784 261.543 215.335 261.445C214.886 261.428 214.435 261.362 213.988 261.217C213.224 260.976 212.487 260.69 211.866 260.268L210.211 259.029C210.031 259.026 209.883 259.177 209.884 259.36C209.884 259.543 210.63 261.214 210.756 261.409Z" fill="#00160A"/>
<path fill-rule="evenodd" clip-rule="evenodd" d="M226.669 273.547C227.532 274.478 228.949 275.256 230.512 275.49C232.098 275.718 233.728 275.332 234.83 274.717C235.169 274.548 235.306 274.132 235.137 273.793C234.967 273.454 234.554 273.319 234.215 273.489C233.461 273.816 232.452 273.869 231.417 273.822C230.981 273.799 230.542 273.74 230.106 273.705C228.967 273.6 227.882 273.512 227.089 273.038C226.949 272.927 226.741 272.945 226.625 273.085C226.509 273.226 226.529 273.43 226.669 273.547Z" fill="#00160A"/>
<path fill-rule="evenodd" clip-rule="evenodd" d="M169.434 290.942C170.835 290.932 171.979 292.059 171.989 293.46C171.999 294.86 170.871 296.004 169.471 296.014C141.502 296.213 122.327 304.28 111.653 320.095C99.0016 338.839 87.0726 369.427 87.8471 409.014C88.4234 438.469 150.366 433.794 165.218 433.006C167.201 432.901 168.552 433.956 168.537 434.114C168.424 435.301 167.482 436.279 166.251 436.396C148.153 438.113 132.94 436.343 120.667 435.104C94.7131 432.482 81.9103 425.182 82.7818 408.745C84.9197 368.422 96.2716 336.823 109.477 317.257C121.203 299.885 139.933 291.152 169.434 290.942Z" fill="#00160A"/>
<path fill-rule="evenodd" clip-rule="evenodd" d="M169.912 187.377C167.377 189.858 167.025 195.195 167.755 204.586L167.839 205.626C167.946 206.904 168.069 208.216 168.222 209.736L169.033 217.709C169.276 220.257 169.278 220.771 169.196 221.245L169.099 221.78C168.405 225.56 166.711 229.45 166.071 231.373L165.936 231.764L165.859 231.647C160.524 223.595 155.631 217.75 150.947 216.162C145.228 214.222 140.296 217.091 136.6 223.932L136.386 224.336C129.658 237.213 137.08 245.182 154.912 249.226L155.259 249.303L155.8 250.643C173.036 292.846 197.696 310.831 231.31 301.706C254.194 295.495 267.723 275.393 273.08 246.754C276.943 226.105 275.891 201.135 272.09 190.151C270.921 186.773 268.998 184.96 266.101 184.692C265.114 184.6 264.085 184.687 262.787 184.929L262.169 185.052C261.146 185.272 258.536 185.888 258.437 185.91C253.589 187.004 249.573 187.362 244.639 186.764L243.96 186.677C240.882 186.257 237.972 185.784 233.655 185.025L226.757 183.816C220.914 182.812 218.636 182.509 214.955 182.189C208.661 181.642 203.187 181.855 197.935 183.006L197.279 183.155C195.014 183.686 193.354 184.497 190.041 183.449L188.479 182.941C181.024 180.525 177.07 180.374 169.912 187.377ZM187.693 187.006C192.199 188.488 194.674 188.909 198.082 188.173L199.334 187.89C207.415 186.124 213.602 186.657 230.89 189.688L235.036 190.414C238.239 190.964 240.692 191.351 243.275 191.703C248.964 192.479 253.56 192.153 258.884 191.006L264.317 189.79C265.253 189.596 265.138 189.669 265.476 189.723L265.632 189.743C266.344 189.809 268.758 190.171 269.325 191.811C272.818 201.903 273.833 225.991 270.123 245.821C265.087 272.747 250.635 291.205 229.981 296.811C198.508 305.355 174.846 289.121 158.466 247.196L157.962 245.906L156.604 245.632L155.635 245.431C140.044 242.09 134.778 236.098 140.048 226.343C142.688 221.457 146.304 219.943 149.318 220.966C152.985 222.209 157.605 227.003 162.884 235.375L162.943 235.464C165.259 238.814 168.472 237.53 170.105 233.974C171.123 231.755 172.091 228.044 173.067 222.735L173.263 221.65C173.428 220.634 173.351 219.822 172.501 211.619L172.2 208.681C172.092 207.597 172.001 206.618 171.92 205.674L171.88 205.205C171.546 201.208 171.424 198.025 171.549 195.522C171.677 192.98 172.085 191.355 172.445 191.003L173.048 190.422C178.284 185.465 181.252 184.97 186.609 186.654L187.693 187.006Z" fill="#00160A"/>
<path fill-rule="evenodd" clip-rule="evenodd" d="M203.552 126.222C204.44 126.222 205.34 126.254 206.254 126.315C211.403 126.66 216.046 127.733 223.61 130.049L228.141 131.447C236.026 133.855 238.648 134.42 242.16 134.42C269.398 134.42 283.439 143.659 284.356 158.842C285.058 170.489 276.922 184.345 267.772 189.092C266.528 189.737 264.997 189.252 264.352 188.009C263.707 186.766 264.192 185.235 265.436 184.59C272.833 180.752 279.873 168.763 279.292 159.148C278.572 147.217 267.239 139.645 242.902 139.495L241.717 139.49C237.698 139.447 234.761 138.781 226.323 136.196L222.159 134.91C214.932 132.696 210.578 131.689 205.914 131.376C205.111 131.322 204.324 131.295 203.552 131.295C171.221 131.295 139.372 158.842 134.989 184.59C133.923 190.85 140.75 225.715 139.372 225.966C137.994 226.217 136.673 225.304 136.422 223.926L136.125 222.272C133.185 205.607 130.015 190.558 131.827 182.671C139.165 150.736 168.817 126.222 203.552 126.222Z" fill="#00160A"/>
<path fill-rule="evenodd" clip-rule="evenodd" d="M239.493 199.965C241.016 199.965 241.742 203.368 241.477 204.241C240.323 208.031 243.21 229.632 245.35 235.214L245.451 235.471C248.556 243.198 244.038 248.195 233.805 249.588C232.417 249.777 231.139 248.805 230.95 247.417C230.891 246.984 231.271 245.836 232.226 245.92C239.254 246.533 244.353 240.505 242.85 236.544L242.657 236.053C240.202 229.675 237.441 215.75 237.441 202.536C237.441 201.134 238.158 199.965 239.493 199.965Z" fill="#00160A"/>
<path fill-rule="evenodd" clip-rule="evenodd" d="M142.504 244.692C143.234 246.467 142.64 264.216 151.965 273.838C159.374 281.485 167.8 278.978 169.778 276.61C170.746 275.451 172.554 276.478 173.186 277.728C173.818 278.978 173.317 280.504 172.068 281.136C165.689 284.363 157.197 283.165 151.965 278.687C142.876 270.908 140.893 253.923 140.893 247.897C140.893 245.666 141.853 243.112 142.504 244.692Z" fill="#00160A"/>
<path fill-rule="evenodd" clip-rule="evenodd" d="M248.026 222.525C248.91 221.194 250.206 221.037 251.517 221.581C252.796 222.112 254.054 223.482 254.464 224.402C255.07 225.771 255.078 228.008 254.589 230.137C254.09 232.317 253.084 234.345 251.996 235.261C250.961 236.124 250.093 236.472 249.165 235.103C245.627 229.879 247.685 223.037 248.026 222.525Z" fill="#00160A"/>
<path fill-rule="evenodd" clip-rule="evenodd" d="M208.427 227.58C208.043 226.169 208.069 218.875 210.825 218.875C214.925 218.875 215.448 226.466 214.922 227.999C211.957 236.638 208.812 228.99 208.427 227.58Z" fill="#00160A"/>
<path fill-rule="evenodd" clip-rule="evenodd" d="M243.544 149.062C242.74 147.953 245.914 147.611 247.07 148.402C256.743 155.026 261.713 161.359 261.627 167.676C261.543 173.88 256.508 180.81 246.749 188.803C245.665 189.691 244.067 189.532 243.18 188.448C242.292 187.364 255.862 178.649 256.555 167.607C257.249 156.566 245.053 151.144 243.544 149.062Z" fill="#00160A"/>
<path fill-rule="evenodd" clip-rule="evenodd" d="M258.572 146.379C258.159 144.58 260.781 144.692 262.012 145.361C269.818 149.6 273.837 156.172 273.837 164.759C273.837 173.171 268.149 180.498 259.568 188.984C258.572 189.969 256.967 189.96 255.982 188.964C254.997 187.969 269.832 177.576 269.832 162.593C269.832 147.61 259.133 148.822 258.572 146.379Z" fill="#00160A"/>
<ellipse cx="256.023" cy="245.768" rx="9.63768" ry="3.55072" fill="#FFB61D"/>
<path fill-rule="evenodd" clip-rule="evenodd" d="M245.675 202.994C247.968 202.174 251.134 202.679 255.268 204.375C255.971 204.664 256.655 205.041 257.401 205.534L257.92 205.894C258.88 206.578 260.516 207.797 260.834 208.02C261.873 208.749 262.817 209.321 263.838 209.815C264.812 210.285 266.399 210.719 268.566 211.089C269.394 211.23 269.951 212.016 269.81 212.845C269.669 213.673 260.25 212.342 259.086 211.526L256.69 209.774C256.273 209.47 255.913 209.213 255.724 209.088C255.131 208.696 254.615 208.411 254.113 208.206C250.737 206.821 248.289 206.4 246.855 206.824L246.699 206.874C243.703 206.137 244.883 203.277 245.675 202.994Z" fill="#00160A"/>
<path fill-rule="evenodd" clip-rule="evenodd" d="M170.385 278.055C171.301 277.705 172.327 278.165 172.676 279.081C173.769 281.944 174.411 288.242 174.599 289.91C174.781 291.532 174.781 293.12 174.597 294.672C174.482 295.646 173.599 296.342 172.626 296.227C171.652 296.112 170.956 295.229 171.071 294.255C171.222 292.977 171.222 291.662 171.07 290.307C170.923 288.997 170.354 282.954 169.359 280.346C169.009 279.43 169.468 278.404 170.385 278.055Z" fill="#00160A"/>
<path fill-rule="evenodd" clip-rule="evenodd" d="M170.996 294.698C171.918 293.643 175.024 291.891 174.575 294.458C174.126 297.025 167.7 300.01 167.7 304.949C167.7 312.28 170.527 319.297 180.696 322.23C217.122 332.737 229.968 305.987 230.981 306.955C231.993 307.923 232.029 309.529 231.061 310.541C225.339 316.523 220.726 320.511 217.122 322.539C204.451 329.669 190.697 331.082 179.029 327.021C168.357 323.307 160.91 312.75 165.341 302.39C166.06 300.709 167.911 298.225 170.996 294.698Z" fill="#00160A"/>
<path fill-rule="evenodd" clip-rule="evenodd" d="M215.725 200.045C217.817 199.784 221.434 200.141 225.401 201.388C226.737 201.808 227.48 203.232 227.06 204.568C226.64 205.905 225.217 206.647 223.88 206.227C220.515 205.17 217.919 204.628 216.158 204.583L215.725 204.581C215.108 204.596 214.658 204.703 212.91 205.372L210.281 206.399C207.762 207.392 205.908 207.976 203.855 208.314C201.539 208.694 198.046 208.539 193.248 207.887C191.86 207.698 189.487 206.051 191.077 205.032C192.666 204.013 199.387 205.124 202.538 204.568C205.69 204.013 211.671 200.55 215.725 200.045Z" fill="#00160A"/>
<path fill-rule="evenodd" clip-rule="evenodd" d="M261.428 274.435C259.867 275.621 261.774 277.296 262.385 279.12C262.524 279.536 262.701 279.964 262.935 280.466L263.221 281.06L263.868 282.349L264.136 282.896C264.424 283.494 264.629 283.965 264.791 284.412C265.294 285.797 265.247 286.42 264.774 286.842C262.11 289.22 259.28 290.811 253.857 293.213L250.863 294.523C241.835 298.512 235.811 301.159 232.416 306.558C227.935 313.683 229.13 323.896 232.255 338.768L232.402 339.457C233.001 342.229 231.85 347.29 231.023 354.96L230.963 355.512C230.624 358.578 230.187 362.01 229.59 366.366L227.207 383.272C226.307 389.738 225.637 394.881 225.057 399.918L224.838 401.863C223.093 417.61 222.59 429.993 223.601 440.051C224.477 448.776 229.587 461.258 235.617 467.222C244.476 475.984 253.281 471.834 261.248 453.715C264.809 445.616 267.01 438.015 268.062 430.288C269.469 419.956 268.892 409.423 266.44 395.215L266.185 393.77C264.508 384.56 257.181 350.623 256.307 346.318L256.024 344.948L254.162 336.273C254.043 335.706 253.931 335.171 253.823 334.645L253.478 332.926C251.937 325.095 251.402 319.898 251.982 316.534C252.037 316.217 252.305 315.751 252.853 315.159C253.707 314.237 255.063 313.197 257.059 311.911L257.947 311.351C259.816 310.199 264.263 307.553 264.294 307.534L265.25 306.948C274.641 301.137 279.057 296.581 279.057 290.132C279.057 283.725 276.354 278.829 271.966 275.907C268.318 273.478 263.723 272.691 261.428 274.435ZM266.544 280.42L265.672 278.666L265.574 278.647C266.709 278.841 267.986 279.351 269.154 280.129C272.15 282.124 273.985 285.447 273.985 290.132C273.985 294.14 270.446 297.765 262.543 302.658L261.161 303.496C259.81 304.302 256.11 306.511 254.829 307.316L254.723 307.383C252.176 309 250.406 310.336 249.131 311.713C247.972 312.965 247.228 314.258 246.984 315.672C246.232 320.029 246.889 325.964 248.73 335.053L249.198 337.315L250.904 345.251L251.861 349.842C253.818 359.107 259.856 387.215 261.24 394.928L261.285 395.183C263.787 409.383 264.391 419.652 263.036 429.603C262.05 436.85 259.98 443.997 256.605 451.673C252.961 459.961 249.298 464.603 245.929 466.027C243.409 467.092 240.884 466.3 238.169 463.615C233.061 458.563 228.4 447.178 227.633 439.544C226.666 429.911 227.157 417.833 228.867 402.404L229.082 400.498C229.682 395.29 230.38 389.954 231.335 383.122L233.415 368.398L233.862 365.134C234.307 361.83 234.655 359.061 234.938 356.539L235.116 354.898C235.924 347.22 236.057 342.032 235.383 338.637L235.331 338.385C232.289 324.315 231.966 315.189 235.695 309.259C238.336 305.059 242.647 302.83 250.456 299.353L253.936 297.827C259.793 295.231 262.966 293.444 266.123 290.626C268.456 288.544 268.664 285.802 267.53 282.68C267.272 281.971 266.97 281.288 266.544 280.42Z" fill="#00160A"/>
<path d="M266.544 280.42L265.671 278.666L265.574 278.647C266.709 278.841 267.986 279.351 269.154 280.129C272.15 282.124 273.985 285.447 273.985 290.132C273.985 294.14 270.446 297.765 262.543 302.658L261.161 303.496C259.81 304.302 256.11 306.511 254.829 307.316L254.723 307.383C252.176 309 250.406 310.337 249.131 311.713C247.972 312.965 247.228 314.258 246.984 315.672C246.232 320.029 246.889 325.964 248.73 335.053L249.198 337.315L250.904 345.251L251.861 349.842C253.818 359.107 259.856 387.215 261.24 394.928L261.285 395.183C263.787 409.383 264.391 419.652 263.036 429.603C262.05 436.85 259.98 443.997 256.605 451.673C252.961 459.961 249.298 464.603 245.929 466.027C243.409 467.092 240.884 466.3 238.169 463.615C233.061 458.563 228.4 447.178 227.633 439.544C226.666 429.911 227.157 417.833 228.867 402.404L229.082 400.498C229.682 395.29 230.38 389.954 231.335 383.122L233.415 368.399L233.862 365.134C234.307 361.83 234.654 359.061 234.938 356.539L235.116 354.898C235.924 347.22 236.057 342.032 235.383 338.637L235.331 338.386C232.288 324.315 231.966 315.189 235.695 309.259C238.336 305.059 242.647 302.83 250.456 299.353L253.936 297.827C259.793 295.231 262.966 293.444 266.123 290.627C268.456 288.544 268.664 285.802 267.53 282.68C267.272 281.972 266.97 281.288 266.544 280.42Z" fill="white"/>
<path fill-rule="evenodd" clip-rule="evenodd" d="M250.143 314.434C250.836 313.217 252.385 312.792 253.602 313.485C268.243 321.824 276.633 331.863 278.519 343.608C280.337 354.922 268.491 413.793 267.122 413.496C265.754 413.199 264.884 411.849 265.181 410.48L265.821 407.499C272.594 375.696 275.142 354.567 273.511 344.413C271.899 334.377 264.509 325.535 251.092 317.893C249.874 317.2 249.45 315.651 250.143 314.434Z" fill="#00160A"/>
<path fill-rule="evenodd" clip-rule="evenodd" d="M256.168 280.505C257.347 279.748 258.916 280.09 259.673 281.268C260.977 283.298 261.759 284.951 262.003 286.363C262.243 287.753 262.081 289.619 261.572 292.101C261.29 293.473 259.949 294.357 258.577 294.076C257.935 293.944 257.4 293.58 257.041 293.089C256.633 292.532 259.033 291.081 259.033 287.227C259.033 283.373 254.99 281.262 256.168 280.505Z" fill="#00160A"/>
<path fill-rule="evenodd" clip-rule="evenodd" d="M255.242 284.414C255.856 283.902 256.397 285.835 256.277 286.789C256.097 288.232 256.097 293.417 254.057 295.866C253.249 296.836 251.928 297.651 250.668 297.039C250.111 296.769 251.848 294.349 252.903 291.613C253.667 289.631 254.263 287.508 254.668 286.085C254.968 285.028 254.606 284.945 255.242 284.414Z" fill="#00160A"/>
<ellipse cx="210.421" cy="242.727" rx="10.4907" ry="2.94753" transform="rotate(8.98977 210.421 242.727)" fill="#FFB61D"/>
<path fill-rule="evenodd" clip-rule="evenodd" d="M127.275 310.203L129.106 314.051L133.214 315.186L130.12 318.116L130.31 322.373L126.567 320.336L122.577 321.832L123.358 317.643L120.701 314.311L124.927 313.759L127.275 310.203Z" fill="#00160A"/>
<path fill-rule="evenodd" clip-rule="evenodd" d="M156.921 303.098L158.244 306.038L161.232 306.895L158.971 309.146L159.098 312.403L156.378 310.854L153.469 312.009L154.049 308.802L152.123 306.259L155.202 305.825L156.921 303.098Z" fill="#00160A"/>
<path fill-rule="evenodd" clip-rule="evenodd" d="M149.594 326.435L151.425 330.283L155.533 331.418L152.439 334.348L152.629 338.605L148.886 336.568L144.896 338.064L145.676 333.875L143.02 330.543L147.246 329.991L149.594 326.435Z" fill="#00160A"/>
<path fill-rule="evenodd" clip-rule="evenodd" d="M221.623 330.493L223.454 334.341L227.562 335.476L224.467 338.406L224.658 342.663L220.915 340.626L216.925 342.122L217.705 337.933L215.049 334.601L219.275 334.049L221.623 330.493Z" fill="#00160A"/>
<path fill-rule="evenodd" clip-rule="evenodd" d="M235.224 307.736C235.273 309.136 234.088 310.308 232.687 310.273C225.69 310.095 224.578 298.064 225.249 298.015C226.178 297.948 227.765 303.663 230.89 305.745C233.272 307.332 235.087 303.879 235.224 307.736Z" fill="#00160A"/>
<circle cx="362.5" cy="230.5" r="63.5" fill="#C4C4C4"/>
<path d="M318.707 188.458L326.684 278.716L362.5 288.745L398.304 278.722L406.293 188.458H318.707Z" fill="#2196F3"/>
<path d="M389.106 217.904L388.104 229.232L385.078 263.189L362.5 269.47L362.481 269.476L339.915 263.189L338.34 245.431H349.396L350.218 254.642L362.487 257.973L362.494 257.967L374.782 254.636L376.456 239.288L337.811 239.395L336.715 228.9L377.384 228.418L378.206 217.184L335.626 217.303L334.91 206.852H362.5H390.089L389.106 217.904Z" fill="#FAFAFA"/>
<ellipse cx="63.5" cy="209" rx="63.5" ry="63" fill="#C4C4C4"/>
<path d="M122.183 209C122.183 216.586 120.722 223.831 118.061 230.478C116.638 234.033 114.872 237.417 112.803 240.587C110.226 244.541 107.176 248.165 103.737 251.378C101.723 253.262 99.5766 255.004 97.3107 256.592C87.7539 263.288 76.0916 267.221 63.5 267.221C50.9084 267.221 39.2462 263.288 29.6891 256.592C26.8531 254.605 24.2041 252.378 21.7729 249.935C11.2891 239.42 4.81726 224.957 4.81726 209C4.81726 193.043 11.2891 178.581 21.7729 168.065C24.3478 165.48 27.1669 163.134 30.1921 161.062C39.6533 154.577 51.1287 150.78 63.5 150.78C75.8713 150.78 87.3468 154.577 96.808 161.062C99.1193 162.642 101.309 164.387 103.361 166.276C106.956 169.574 110.132 173.317 112.803 177.414C114.873 180.584 116.638 183.968 118.061 187.523C120.722 194.169 122.183 201.415 122.183 209Z" fill="#E4BA42"/>
<path d="M94.4573 203.762C92.8241 199.062 86.1269 199.062 84.8205 202.952C83.5139 206.841 87.9241 209.109 94.7842 211.378C101.644 213.647 105.891 219.643 105.075 224.991C104.258 230.338 101.971 237.307 88.4141 237.307C79.9411 237.307 75.2323 232.052 72.8921 228.112L80.5738 223.532C80.5738 223.532 83.1872 229.042 88.0873 229.042C92.9875 229.042 94.9474 227.422 94.9474 223.694C94.9474 219.157 79.1035 217.537 76.6535 209.758C74.2035 201.979 77.4703 190.96 88.9038 191.77C96.05 192.276 100.07 195.758 102.079 198.298L94.4573 203.762Z" fill="#F2F2F2"/>
<path d="M58.8499 192.581C58.8499 192.581 58.8499 219.968 58.8499 223.695C58.8499 227.422 55.5832 229.367 52.3164 228.718C49.0497 228.07 47.5796 224.181 47.5796 224.181L40.0662 229.205C40.0662 229.205 41.6994 236.659 51.9898 237.307C62.2801 237.955 68.1601 231.797 68.1601 226.612C68.1601 221.426 68.1601 192.581 68.1601 192.581H58.8499Z" fill="#F2F2F2"/>
<path d="M21.7727 161.062V249.935C24.2039 252.378 26.8529 254.604 29.6889 256.591H97.3107C99.5766 255.004 101.723 253.262 103.737 251.377H27.0278V166.275H112.803V240.586C114.872 237.416 116.638 234.032 118.06 230.477V161.062H21.7727Z" fill="#F2F2F2"/>
<circle cx="303.5" cy="78.5" r="63.5" fill="#C4C4C4"/>
<path d="M259.716 38.4359L266.197 120.977C266.294 122.216 267.137 123.273 268.327 123.649L302.427 134.413C303.03 134.603 303.677 134.603 304.28 134.413L338.38 123.649C339.571 123.273 340.413 122.216 340.51 120.977L346.991 38.4359C347.13 36.6613 345.722 35.145 343.934 35.145H262.774C260.986 35.145 259.577 36.6613 259.716 38.4359ZM330.372 64.0455H288.139L289.413 75.7475H329.454L326.835 109.108L303.354 116.52L279.873 109.108L278.505 91.6791H290.829V100.228L303.683 103.663L316.46 100.228L317.451 86.6034H278.106L275.494 53.3303H331.213L330.372 64.0455Z" fill="#FC490B"/>
<circle cx="112.5" cy="63.5" r="63.5" fill="#C4C4C4"/>
<path d="M171.621 63.0624C171.621 82.3965 162.27 99.5463 147.846 110.239C141.807 114.713 134.88 118.056 127.378 119.953C122.758 121.125 117.922 121.745 112.938 121.745C107.953 121.745 103.115 121.125 98.4947 119.953C90.9929 118.056 84.0658 114.713 78.0275 110.236C63.6034 99.5438 54.255 82.3942 54.255 63.0624C54.255 30.6528 80.5281 4.37964 112.938 4.37964C145.347 4.37964 171.621 30.6528 171.621 63.0624Z" fill="#5ADAFD"/>
<path d="M147.906 96.1039C147.63 94.2573 147.266 92.3554 146.816 90.4106C146.418 88.7028 145.956 86.9614 145.432 85.1938C144.052 80.5519 142.234 75.728 140.031 70.8513C139.065 68.7195 138.026 66.5783 136.917 64.4393C135.94 62.5544 134.91 60.6669 133.824 58.7913C132.742 56.9135 131.626 55.0787 130.478 53.2896C129.183 51.2609 127.848 49.2921 126.483 47.3901C123.365 43.0428 120.095 39.0549 116.763 35.5385C115.496 34.1996 114.22 32.9301 112.938 31.7349C111.48 30.3696 110.014 29.1027 108.55 27.9409C98.9956 20.3553 90.4423 18.0774 84.4615 21.5289C78.4807 24.9827 76.1765 33.5289 77.9681 45.5985C78.2411 47.4452 78.6077 49.3471 79.0604 51.2919C79.4533 52.9996 79.9154 54.7411 80.4424 56.5087C81.8221 61.1506 83.6399 65.977 85.846 70.8511C86.809 72.9829 87.8484 75.1216 88.9574 77.2606C89.9346 79.1481 90.967 81.033 92.0497 82.9109C93.1323 84.7887 94.2485 86.6235 95.3957 88.4126C96.6939 90.4438 98.028 92.4127 99.391 94.3144C102.51 98.6617 105.779 102.647 109.111 106.163C110.378 107.502 111.657 108.774 112.938 109.969C114.397 111.335 115.863 112.599 117.324 113.761C120.838 116.551 124.215 118.623 127.379 119.953C134.881 118.056 141.808 114.712 147.846 110.238C148.689 106.353 148.72 101.594 147.906 96.1039ZM142.526 109.366C141.829 112.379 140.548 114.444 138.715 115.5C136.885 116.559 134.457 116.636 131.498 115.735C128.294 114.755 124.552 112.614 120.677 109.536C119.374 108.502 118.069 107.376 116.763 106.166C115.484 104.978 114.205 103.709 112.936 102.365C110.756 100.058 108.6 97.5336 106.497 94.8248C105.094 93.0165 103.712 91.1267 102.363 89.1649C100.406 86.3218 98.5165 83.3278 96.72 80.214C94.9212 77.1001 93.2733 73.9673 91.7907 70.8511C90.7655 68.7025 89.8193 66.5613 88.9571 64.4416C87.6613 61.2656 86.5523 58.1351 85.6446 55.0955C85.1176 53.3231 84.6554 51.5841 84.2696 49.8812C83.8719 48.1471 83.5487 46.4512 83.3043 44.8058C82.5763 39.9125 82.593 35.6011 83.3474 32.3364C84.0445 29.3232 85.3282 27.2585 87.1582 26.2022C88.1473 25.6321 89.309 25.3447 90.6335 25.3447C91.7641 25.3447 93.0143 25.5531 94.3748 25.9698C97.5796 26.947 101.321 29.0908 105.196 32.1663C106.499 33.2011 107.807 34.3268 109.11 35.5413C110.391 36.7268 111.668 37.9963 112.935 39.3378C115.117 41.6443 117.273 44.169 119.378 46.8803C120.782 48.6887 122.164 50.5785 123.513 52.5403C125.467 55.3834 127.357 58.3773 129.153 61.4887C130.952 64.6025 132.6 67.7354 134.083 70.8516C135.108 73.0024 136.054 75.1439 136.916 77.2636C138.212 80.4395 139.321 83.5678 140.229 86.6072C140.756 88.3796 141.218 90.1185 141.606 91.8215C142.001 93.5556 142.325 95.2514 142.569 96.8968C143.297 101.79 143.281 106.102 142.526 109.366Z" fill="#F2F2F2"/>
<path d="M152.291 53.1959C150.555 52.511 148.725 51.8763 146.813 51.2917C145.137 50.7815 143.398 50.3097 141.604 49.881C136.895 48.7553 131.807 47.917 126.483 47.39C124.157 47.1576 121.783 46.9877 119.379 46.8797C117.256 46.7816 115.106 46.7312 112.938 46.7312C110.77 46.7312 108.619 46.7814 106.495 46.8797C104.088 46.9875 101.714 47.1601 99.3882 47.39C94.0636 47.917 88.9787 48.7553 84.2696 49.881C82.4756 50.3097 80.7367 50.7817 79.0599 51.2917C77.1486 51.8737 75.3186 52.511 73.582 53.1959C62.236 57.6748 55.9845 63.9457 55.9845 70.851C55.9845 77.7563 62.236 84.0271 73.5822 88.5085C75.3189 89.1935 77.1463 89.8282 79.0576 90.4127C80.7342 90.923 82.4731 91.3948 84.2673 91.8211C88.9764 92.9492 94.0636 93.7852 99.3907 94.3145C101.716 94.5444 104.09 94.7145 106.497 94.8247C108.619 94.9228 110.77 94.9707 112.938 94.9707C115.106 94.9707 117.254 94.9228 119.376 94.8247C121.783 94.7145 124.155 94.5444 126.483 94.3145C131.807 93.7875 136.897 92.9492 141.606 91.8211C143.4 91.3925 145.139 90.923 146.816 90.4104C148.725 89.8284 150.555 89.1937 152.291 88.5085C163.64 84.0271 169.889 77.7565 169.889 70.851C169.889 63.9457 163.64 57.6748 152.291 53.1959ZM161.086 77.2174C158.639 79.5048 154.912 81.6724 150.31 83.4905C148.761 84.1011 147.132 84.6712 145.431 85.1934C143.762 85.7085 142.025 86.1802 140.229 86.6066C137.141 87.342 133.877 87.9455 130.478 88.4127C128.212 88.7265 125.886 88.978 123.513 89.1625C120.071 89.438 116.533 89.577 112.938 89.577C109.342 89.577 105.805 89.438 102.363 89.165C99.9892 88.9782 97.6612 88.7267 95.3952 88.4129C91.9965 87.9458 88.7318 87.3422 85.6443 86.6068C83.8478 86.1805 82.1114 85.7087 80.4419 85.1936C78.7413 84.6715 77.1126 84.1014 75.5628 83.4907C70.9617 81.6727 67.2346 79.5051 64.7867 77.2176C62.5256 75.1073 61.3783 72.9661 61.3783 70.8512C61.3783 68.7363 62.5256 66.5949 64.7867 64.4848C67.2346 62.1973 70.9614 60.0297 75.5628 58.2117C77.1124 57.601 78.7413 57.0309 80.4419 56.5088C82.1114 55.9937 83.8478 55.5219 85.6443 55.0956C88.7318 54.3602 91.9965 53.7566 95.3952 53.2895C97.6612 52.9756 99.9892 52.7242 102.363 52.5374C105.805 52.2643 109.342 52.1254 112.938 52.1254C116.533 52.1254 120.071 52.2643 123.513 52.5399C125.886 52.7244 128.212 52.9759 130.478 53.2897C133.877 53.7569 137.141 54.3604 140.229 55.0958C142.025 55.5222 143.762 55.9939 145.431 56.509C147.132 57.0312 148.761 57.6013 150.31 58.2119C154.911 60.03 158.639 62.1976 161.086 64.485C163.348 66.5953 164.495 68.7366 164.495 70.8514C164.495 72.9661 163.348 75.1073 161.086 77.2174Z" fill="#F2F2F2"/>
<path d="M141.412 21.5289C135.432 18.0774 126.878 20.3553 117.324 27.9409C115.863 29.1027 114.397 30.3696 112.938 31.7349C111.657 32.9301 110.378 34.2019 109.111 35.5408C105.779 39.057 102.51 43.0426 99.3886 47.3899C98.0258 49.2916 96.6915 51.2607 95.3959 53.2894C94.2486 55.0785 93.1325 56.9133 92.0498 58.7911C90.9672 60.669 89.9349 62.5539 88.9575 64.4414C87.8485 66.5803 86.8089 68.7216 85.8462 70.8509C83.6401 75.7275 81.8223 80.5514 80.4425 85.1933C79.9155 86.9634 79.4534 88.7046 79.058 90.4124C78.6078 92.3574 78.2412 94.2568 77.9682 96.1035C77.1538 101.591 77.185 106.35 78.0281 110.235C84.0664 114.712 90.9933 118.056 98.4953 119.953C101.659 118.623 105.037 116.551 108.55 113.761C110.014 112.599 111.48 111.332 112.939 109.969C114.22 108.774 115.497 107.505 116.764 106.166C120.093 102.65 123.365 98.6615 126.484 94.3141C127.846 92.4122 129.181 90.4434 130.479 88.4124C131.626 86.6232 132.742 84.7885 133.825 82.9106C134.91 81.0351 135.94 79.1501 136.917 77.2627C138.026 75.1237 139.066 72.9825 140.031 70.8506C142.235 65.9763 144.053 61.1501 145.432 56.5082C145.957 54.7406 146.419 52.9992 146.814 51.2914C147.267 49.3464 147.631 47.4447 147.906 45.598C149.697 33.5289 147.393 24.9827 141.412 21.5289ZM140.229 55.0955C139.322 58.1351 138.213 61.2631 136.917 64.4391C136.054 66.5588 135.108 68.7002 134.083 70.8511C132.601 73.9673 130.953 77.1001 129.154 80.214C127.357 83.3253 125.468 86.3193 123.513 89.1624C122.162 91.1265 120.78 93.0162 119.377 94.8246C117.274 97.5336 115.118 100.058 112.936 102.365C111.669 103.706 110.392 104.975 109.111 106.163C107.808 107.375 106.5 108.501 105.197 109.536C101.322 112.614 97.5802 114.755 94.3756 115.735C91.4176 116.635 88.9887 116.559 87.1587 115.5C85.3288 114.444 84.0449 112.379 83.348 109.366C82.5936 106.101 82.5767 101.79 83.3049 96.8964C83.5493 95.251 83.8725 93.5551 84.2677 91.821C84.6558 90.1181 85.1179 88.3791 85.6449 86.6067C86.5527 83.5672 87.6617 80.4366 88.9575 77.2606C89.8199 75.1409 90.7659 72.9994 91.791 70.8511C93.2737 67.735 94.9216 64.6021 96.7204 61.4882C98.5168 58.3744 100.407 55.3804 102.364 52.5373C103.712 50.5755 105.092 48.6858 106.495 46.8799C108.601 44.1686 110.756 41.6441 112.936 39.3373C114.205 37.9936 115.484 36.7241 116.763 35.5385C118.069 34.3266 119.374 33.2008 120.677 32.1661C124.552 29.0908 128.294 26.947 131.499 25.9696C132.859 25.5528 134.109 25.3445 135.24 25.3445C136.564 25.3445 137.728 25.6319 138.715 26.202C140.547 27.2583 141.829 29.323 142.526 32.3362C143.28 35.6009 143.297 39.9122 142.569 44.8056C142.325 46.451 142.001 48.1468 141.604 49.881C141.218 51.5839 140.756 53.3228 140.229 55.0955Z" fill="#F2F2F2"/>
<path d="M112.938 81.5552C118.85 81.5552 123.642 76.7628 123.642 70.8511C123.642 64.9394 118.85 60.147 112.938 60.147C107.027 60.147 102.234 64.9394 102.234 70.8511C102.234 76.7628 107.027 81.5552 112.938 81.5552Z" fill="#F2F2F2"/>
</g>
<defs>
<clipPath id="clip0">
<rect width="430" height="339" fill="white"/>
</clipPath>
</defs>
</svg>
