<svg width="40" height="39" viewBox="0 0 40 39" fill="none" xmlns="http://www.w3.org/2000/svg">
<path fill-rule="evenodd" clip-rule="evenodd" d="M5.33333 39H35.6667C38.0599 39 40 37.0599 40 34.6667V4.33333C40 1.9401 38.0599 0 35.6667 0H5.33333C2.9401 0 1 1.9401 1 4.33333V34.6667C1 37.0599 2.9401 39 5.33333 39Z" fill="#C33E96"/>
<path d="M17 4.00012L26.797 4C29.9857 4 32.3806 4.69551 33.9817 6.08654C35.5962 7.47756 36.4035 9.53571 36.4035 12.261C36.4035 13.7088 36.0133 14.9934 35.233 16.1147C34.4526 17.2218 33.3897 18.0806 32.0443 18.6909C33.6319 19.1593 34.8831 20.0536 35.798 21.3736C36.7264 22.6795 37.1906 24.2408 37.1906 26.0577C37.1906 28.8397 36.3362 31.0256 34.6275 32.6154C33.5518 33.6162 32.1962 34.302 30.5606 34.6727C28.6574 35.1041 26.8592 33.8647 26.0426 32.0924L26 32H28C29.8029 32 30.6854 31.1676 31.7214 30.1882C32.7708 29.1946 33.2955 27.832 33.2955 26.1003C33.2955 22.3672 31.5385 20 27.6906 20H25.1759C23.5042 20 21.943 19.1645 21.0157 17.7735L20.5 17H27.1906C28.8858 17 29.9656 16.7747 30.9746 15.8805C31.9972 14.9863 32.5084 13.7727 32.5084 12.2397C32.5084 10.5364 32.0375 9.30151 31.0957 8.53503C30.1539 7.75435 28.924 7 27 7L21 7.00012C19.2084 7.00012 17.6179 5.8537 17.0513 4.15407L17 4.00012Z" fill="black"/>
<path d="M15 11L16.9406 18.0463C17.4212 19.7911 19.008 21 20.8178 21L18.5609 13.6333C18.0814 12.0685 16.6366 11 15 11Z" fill="white"/>
<path d="M9.4918 26.9093H19.4918L20.895 31.8914C21.4128 33.73 23.0899 35 25 35L21.626 23.5453H10.4426L15.8689 4C14.1692 4 12.674 5.12287 12.2001 6.75509L4 35C5.91825 35 7.60102 33.7207 8.11411 31.8724L9.4918 26.9093Z" fill="white"/>
</svg>
